<?xml version="1.0" encoding="UTF-8"?>
<svg id="Livello_1" xmlns="http://www.w3.org/2000/svg" version="1.1" viewBox="0 0 841.89 269.04">
  <!-- Generator: Adobe Illustrator 29.1.0, SVG Export Plug-In . SVG Version: 2.1.0 Build 142)  -->
  <defs>
    <style>
      .st0, .st1, .st2 {
        fill: #871e36;
      }

      .st0, .st3, .st4, .st5, .st6 {
        fill-rule: evenodd;
      }

      .st7, .st8, .st5 {
        fill: #1d1d1b;
      }

      .st9 {
        stroke: #fff;
      }

      .st9, .st1, .st8, .st10, .st11 {
        stroke-miterlimit: 10;
        stroke-width: .5px;
      }

      .st9, .st12, .st3 {
        fill: #fff;
      }

      .st1 {
        stroke: #871e36;
      }

      .st8 {
        stroke: #1d1d1b;
      }

      .st10 {
        stroke: #f2ba49;
      }

      .st10, .st4, .st13 {
        fill: #f2ba49;
      }

      .st6, .st11, .st14 {
        fill: #b5b4b0;
      }

      .st11 {
        stroke: #b5b4b0;
      }
    </style>
  </defs>
  <path class="st1" d="M282.79,115.14c-1.11-2.47-2.55-4.74-4.22-6.86-.1-.13-.2-.27-.28-.41-.12-.19-.09-.32.07-.47.09-.08.2-.12.31-.16,1.22-.47,2.45-.94,3.65-1.47,1.14-.5,2.28-1.01,3.39-1.6.07-.24.16-.47.26-.7-.74.44-1.49.86-2.27,1.21-1.86.83-3.73,1.61-5.67,2.23-.09.03-.18.04-.27.07-.19.06-.37.03-.55-.06-.13-.06-.26-.12-.38-.19-2.96-1.5-5.89-3.06-8.88-4.52-.51-.25-.99-.55-1.45-.88-.37-.27-.74-.55-1.04-.91-.1-.12-.06-.22.09-.26.05-.01.09-.02.14-.03.46-.09.87-.28,1.27-.53.47-.3.9-.65,1.29-1.05.47-.48.93-.97,1.39-1.46.31-.33.6-.67.84-1.05.4-.63.79-1.26,1.18-1.89.21-.34.39-.7.53-1.08.11-.29.23-.57.35-.85.02-.05.03-.12.1-.14.05,0,.07.05.09.09.09.15.17.31.27.46.13.19.25.19.38,0,.03-.05.05-.11.08-.16.07-.17.15-.35.22-.52.12-.31.25-.61.29-.95.02-.19.15-.32.29-.43.07-.06.15-.04.21.04.05.07.1.14.17.18.2.12.35.28.47.47.06.09.13.17.23.22.05.02.1,0,.11-.04.02-.04.02-.09.03-.14.05-.22,0-.45,0-.67,0-.03,0-.08.04-.08.03,0,.07,0,.1.02.17.1.25.28.31.46.04.11.07.23.15.32.03.03.1.03.12,0,.06-.09.08-.19.09-.3,0-.06.01-.12.08-.14.05-.02.12.03.16.11.02.04.04.09.05.13.05.31.24.56.36.84.02.04.05.08.08.11.06.07.16.05.21-.03.08-.15.09-.32.1-.48.01-.32.1-.63.21-.93.04-.11.12-.13.22-.09.11.05.19.14.27.22.13.12.26.24.39.36.06.05.14.01.15-.07.01-.19.02-.38.04-.57.01-.13.12-.17.24-.09.06.04.08.11.17.11.03-.06.07-.11.1-.17.11.05.17.14.24.22.15.17.32.31.51.44.06.05.15.02.17-.06.02-.07.03-.14.03-.21,0-.21,0-.42-.02-.64,0-.12,0-.24.03-.35.05-.15.11-.19.26-.16.13.03.25.07.38.09.08.02.14-.03.14-.11,0-.07-.01-.14-.01-.21,0-.08.05-.12.13-.13.12-.02.2.04.29.1.15.09.28.22.45.28.23.09.3.05.34-.18,0-.06.01-.12.02-.18.02-.13.04-.26.07-.38.03-.12.08-.15.21-.13.06,0,.12.02.17.04.16.05.31.11.47.16.11.04.15.01.14-.11,0-.05,0-.09,0-.14,0-.27,0-.27.27-.26.02,0,.05,0,.07,0,.51.05,1.01-.02,1.51-.14.09-.02.18-.05.27-.09.05-.02.07-.07.04-.12-.08-.17-.19-.33-.31-.47-.29-.34-.53-.72-.84-1.03.01-.07.05-.09.09-.12.13-.09.16-.17.07-.28-.05-.06-.12-.13-.19-.15-.19-.04-.26-.18-.33-.34-.03-.08-.03-.14.05-.18.11-.06.2-.12.28-.22.17-.23.13-.28-.07-.38-.06-.03-.12-.07-.19-.1-.2-.09-.33-.22-.34-.45,0-.06-.04-.11-.06-.16-.04-.12,0-.17.12-.2.15-.03.3-.02.45.03.09.03.14-.02.1-.11-.12-.29.02-.5.22-.69.15-.14.33-.23.53-.26.27-.04.54-.01.81.03.07.01.14.02.21.02.03,0,.06-.04.06-.08,0-.08-.02-.14-.1-.17-.08-.04-.17-.07-.26-.12-.02-.01-.05-.06-.04-.09,0-.03.03-.06.06-.07.18-.07.36-.11.55-.07.24.05.47.03.69-.07.03-.12-.12-.18-.08-.31.09-.05.2-.04.3-.05.33-.04.66-.07.99-.11.13-.01.26-.04.38-.1.11-.05.14-.17.06-.26-.13-.14-.24-.3-.41-.39-.25-.14-.45-.34-.67-.52-.1-.08-.18-.19-.25-.3-.07-.1-.19-.18-.23-.3.09-.08.16-.13.22-.2.18-.2.41-.3.68-.34.2-.02.4-.06.6-.09.07-.01.14-.03.2-.06.08-.05.09-.13.08-.22,0-.07-.05-.1-.12-.11-.15-.02-.27-.09-.37-.19-.01-.01-.02-.04-.02-.06,0-.04.03-.06.07-.07.17-.04.35-.05.53-.02.25.05.46-.02.66-.18.08-.07.17-.13.25-.19.11-.08.22-.12.36-.13.18-.02.35,0,.53,0,.06,0,.13,0,.16-.04.05-.06-.03-.09-.06-.14-.04-.07-.09-.14-.13-.21-.11-.19-.26-.34-.44-.45-.09-.06-.18-.11-.27-.17-.05-.03-.1-.07-.09-.14.12-.1.27-.12.43-.14.13-.01.26-.05.36-.12.09-.06.08-.19-.01-.23-.05-.02-.11-.04-.17-.06-.03-.01-.07-.02-.1-.03-.03-.02-.06-.04-.07-.07-.02-.05.03-.05.06-.06.24-.11.5-.13.76-.18.26-.05.49-.16.73-.26.05-.02.1-.07.14-.11.07-.07.07-.16,0-.22-.12-.11-.25-.21-.4-.29-.1-.06-.22-.09-.26-.22.04-.06.09-.08.15-.1.19-.06.38-.13.57-.19.23-.07.44-.18.64-.31.04-.03.08-.05.11-.09.07-.07.07-.15,0-.22-.07-.06-.15-.11-.23-.17-.08-.06-.09-.13-.03-.22.11-.19.28-.29.48-.34.33-.08.61-.25.86-.46.16-.13.32-.24.52-.3.11-.03.23-.07.3-.18.13-.17.29-.31.45-.45.08-.07.08-.14-.01-.2-.26-.18-.51-.37-.81-.5-.13-.06-.25-.11-.4-.11-.29,0-.55-.11-.81-.22-.16-.07-.32-.14-.5-.17-.08-.01-.17-.02-.22-.1-.09-.13-.22-.21-.35-.29-.08-.05-.12-.11-.06-.2.09-.15.08-.32.1-.48,0-.08-.04-.13-.11-.16-.04-.02-.09-.03-.14-.03-.63-.08-1.23-.31-1.86-.43-.13-.02-.14-.05-.15-.2,0-.2,0-.4-.01-.6-.01-.18-.05-.21-.22-.19-.05,0-.1,0-.14.02-.44.14-.9.22-1.28.5-.1.08-.21.15-.35.12-.06-.08.05-.19-.07-.27-.15.08-.32.11-.5.09-.13-.02-.26.02-.38.07-.08.03-.15.08-.23.07-.06,0-.09-.04-.09-.09,0-.06.02-.12.04-.17.08-.19.04-.37-.01-.55-.02-.08-.08-.11-.16-.08-.14.04-.26.11-.37.2-.17.13-.34.25-.52.37-.08.05-.16.1-.26.09-.29-.03-.56.06-.84.1-.22.03-.44.1-.63.22-.14.08-.3.15-.44.23-.54.3-1.09.57-1.56.98-.32.28-.69.45-1.1.54-.1.02-.21.06-.31.07-.3.03-.52-.27-.4-.53.17-.36.37-.71.69-.97.2-.16.42-.26.65-.35.51-.21,1.05-.36,1.54-.64.06-.03.13-.05.2-.06.33-.03.64-.15.96-.25.28-.1.49-.27.62-.55.03-.08.08-.15.11-.22.07-.16.19-.27.34-.35.16-.08.32-.14.48-.22.2-.09.4-.2.55-.37-.01-.02-.02-.03-.03-.04-.06-.07-.15-.06-.23-.09-.11-.05-.15-.17-.07-.25.05-.06.13-.1.19-.15.26-.18.5-.39.69-.65-.03-.02-.05-.04-.07-.05-.11-.08-.11-.08-.03-.14.17-.15.34-.29.51-.44.23-.2.46-.41.64-.66.08-.1.14-.22.2-.33.04-.08.02-.17-.06-.22-.44-.28-.88-.56-1.32-.83-.12-.08-.25-.12-.4-.11-.05,0-.08-.06-.05-.1.01-.02.02-.04.04-.06.25-.26.43-.56.61-.87.09-.15.08-.21-.04-.34-.04-.04-.09-.08-.13-.12-.11-.1-.23-.2-.34-.31-.09-.08-.08-.14.01-.19.2-.11.39-.22.57-.36.23-.18.38-.25-.03-.43-.01,0-.02-.01-.03-.02-.05-.03-.05-.1-.02-.15.09-.12.22-.18.35-.23.24-.1.45-.26.65-.43.17-.15.17-.22.04-.39-.1-.12-.2-.23-.34-.31-.11-.07-.23-.13-.32-.22-.23-.22-.49-.36-.79-.45-.22-.07-.21-.13-.17-.31.02-.09.07-.17.13-.25.1-.14.22-.25.34-.36.17-.15.35-.28.48-.47-.1-.14-.24-.2-.37-.28-.33-.22-.35-.36-.11-.66.2-.24.36-.49.49-.77.06-.13.13-.26.21-.37.16-.22.08-.28-.08-.41-.2-.15-.42-.28-.65-.35-.32-.1-.44-.38-.62-.59-.02-.03-.01-.07.02-.09.06-.04.12-.07.17-.12.11-.1.17-.22.2-.37.02-.12-.07-.19-.13-.28-.03-.04-.06-.07-.08-.12-.11-.22-.17-.44.03-.65.14-.15.18-.33.11-.53-.07-.17-.01-.32.07-.48-.24-.03-.42-.13-.6-.25-.16-.11-.35-.18-.53-.28-.08-.04-.22.01-.25-.1-.02-.08,0-.19.02-.28.02-.12.05-.23.09-.34.06-.17.08-.35.06-.52-.02-.14-.05-.28-.07-.42-.01-.1-.07-.15-.16-.15-.17,0-.28-.11-.38-.22-.07-.08-.13-.17-.16-.27-.03-.12-.1-.22-.19-.3-.22-.2-.34-.44-.34-.74,0-.17-.09-.21-.27-.17-.02,0-.05,0-.07.02-.26.2-.55.14-.84.09-.01,0-.02,0-.04,0-.27,0-.52.06-.67.31-.02.04-.05.08-.11.07-.18-.23-.17-.24-.33-.29-.11-.03-.19-.13-.28-.14-.11,0-.21.07-.32.11-.08.03-.16.05-.24.08-.26.09-.5.21-.67.44-.06.08-.11.08-.18.03-.09-.06-.17-.13-.2-.24-.04-.11-.12-.18-.22-.22-.21-.08-.39-.22-.55-.38-.09-.09-.16-.08-.25,0-.09.09-.18.18-.31.23-.25.09-.47.24-.64.44-.22.25-.49.44-.73.67-.12.12-.17.12-.31.03-.12-.08-.24-.15-.35-.24-.12-.1-.25-.18-.4-.22-.15-.04-.29-.11-.41-.2-.05-.03-.1-.06-.15-.09-.11-.05-.17-.04-.23.07-.15.28-.38.52-.49.82-.02.04-.04.09-.07.12-.22.24-.38.51-.48.82-.03.08-.09.1-.17.09-.24-.04-.49-.1-.72-.18-.08-.03-.14,0-.17.08-.15.39-.43.7-.57,1.12-.27-.15-.53-.25-.67-.52-.05-.09-.13-.17-.23-.22-.18-.11-.37-.21-.55-.31-.07-.04-.13-.03-.2.02-.27.23-.53.46-.71.78-.13.23-.26.45-.15.73,0,.02,0,.05-.01.07-.1.04-.17-.05-.26-.07-.06-.01-.12,0-.15.07-.09.18-.13.38-.16.58-.01.07-.01.14-.03.21-.02.07-.09.11-.17.08-.08-.03-.15-.07-.22-.11-.16-.08-.34-.09-.52-.07-.08.01-.14.05-.12.14.02.16,0,.31-.05.45-.07.2-.09.41-.13.62-.03.17-.06.35-.08.52-.02.13-.09.24-.16.35-.04.05-.09.07-.16.05-.26-.09-.52-.16-.72-.37-.09-.09-.19-.17-.32-.23-.33-.14-.65-.28-.98-.42-.11-.05-.22-.09-.34-.09-.39.01-.38-.02-.42.35,0,.04,0,.07-.02.1-.09.3-.08.61-.06.91,0,.13.05.26.01.38-.16.07-.32-.04-.48.03.01.35.23.63.21.98-.08-.02-.13-.02-.19-.04-.06-.02-.11-.04-.16-.07-.36-.22-.37-.11-.4.25-.01.19-.04.38.04.56.16.34.1.72.22,1.07.01.03-.03.07-.07.06-.08-.02-.15-.06-.23-.08-.11-.03-.22-.07-.35-.06-.09.01-.15.07-.13.17.05.28.11.56.26.8.09.14.13.3.17.46.15.75.19,1.5.2,2.26,0,.15-.02.31-.04.46-.01.08-.05.16-.08.23-.02.05-.07.08-.11.05-.27-.18-.48-.42-.55-.75-.04-.21-.08-.42-.12-.63-.04-.23-.06-.47-.03-.7.01-.09.01-.19.01-.28,0-.07-.04-.1-.11-.1-.07,0-.1-.04-.13-.1-.04-.1-.07-.2-.12-.29-.07-.14-.08-.27-.03-.41.03-.1.06-.2.09-.31.02-.07-.02-.1-.11-.09-.19.02-.2.02-.25-.13-.09-.27-.14-.55-.19-.83-.04-.25-.12-.48-.25-.69-.04-.06-.09-.09-.18-.06-.31.09-.54.28-.74.53-.16.19-.18.21-.39.02-.09-.08-.15-.19-.2-.29-.07-.15-.13-.3-.2-.45-.05-.1-.08-.22-.18-.29-.19.05-.31.22-.48.26-.21-.11-.22-.34-.31-.5-.1,0-.09.11-.18.11-.09-.17-.13-.37-.16-.57-.06-.35-.29-.58-.57-.79-.12.13-.25.23-.39.32-.18.12-.35.24-.39.48,0,.02-.02.04-.04.06-.05.07-.12.08-.17,0-.15-.2-.32-.38-.55-.49-.2-.11-.38-.23-.53-.41-.11-.13-.24-.23-.4-.29-.27-.11-.37-.08-.55.15-.06.08-.1.16-.13.25-.05.14-.07.13-.21.1-.14-.04-.27-.08-.39-.17-.25-.2-.54-.28-.86-.28-.29,0-.56-.1-.82-.2-.15-.06-.3-.14-.45-.21-.15-.08-.3-.13-.47-.13-.19,0-.37-.02-.55-.11-.1-.05-.23-.08-.35-.04-.23.07-.46.11-.7.08-.06,0-.11.07-.08.12.05.09.09.19.11.3.01.12.04.23.09.34.2.41.24.86.31,1.3.02.11-.02.14-.14.15-.01,0-.02,0-.04,0-.17,0-.17,0-.1.13.06.1.12.2.1.33-.05.26-.01.52,0,.78,0,.08.04.16-.01.25-.04,0-.09.02-.14.01-.08-.01-.16-.04-.24-.06-.2-.05-.37.04-.53.15-.13.1-.05.24-.04.36,0,.01,0,.02,0,.04-.03.26.09.45.29.61.1.08.2.17.26.29.06.1.05.14-.04.21-.11.08-.26.11-.34.23.05.11.13.18.2.26.12.13.24.26.35.4.06.08.03.16-.07.19-.07.02-.14.03-.21,0-.04-.02-.09-.03-.13-.05-.27-.11-.53-.1-.78.05-.02.01-.04.02-.07.03-.17.08-.18.12-.08.29.19.33.38.65.65.92.16.16.3.34.4.54.17.34.08.5-.31.51-.12,0-.24-.02-.35-.03-.03,0-.07-.01-.1-.02-.05,0-.09.05-.07.1.08.17.17.34.26.5.04.07.11.14.04.22-.06.06-.13.03-.2.01-.08-.02-.16-.04-.23-.08-.37-.19-.73-.38-1.02-.69-.04-.05-.11-.03-.13.04-.01.05-.03.09-.02.14.08.38.07.78.25,1.14.08.15.11.31.17.47.06.16.07.32.08.49,0,.08-.02.13-.09.18-.08.05-.18.07-.21.18.04.13.2.17.23.31.04.18.17.31.31.42.07.06.15.12.18.22.02.07,0,.15-.06.18-.08.03-.15.06-.23.08-.12.04-.16.11-.08.2.17.23.25.51.38.76.05.11.08.22.09.34.02.22-.03.3-.26.34-.13.03-.26.05-.38.08-.18.04-.19.07-.13.24.06.16.05.18-.11.21-.16.03-.33.04-.49.09-.32.09-.63.19-.95.29-.1.03-.21.05-.26.14,0,.09.05.15.09.2.13.15.27.29.41.45.19.22.42.38.69.48.13.05.23.13.32.21.06.05.05.1,0,.14-.12.07-.25.13-.37.21-.1.07-.09.17.02.22.06.03.13.05.2.06.2.04.38.13.56.21.09.04.17.09.23.16.03.04.04.09-.01.12s-.11.05-.16.07c-.21.07-.41.17-.61.31.02.05.04.09.06.13.15.26.4.38.66.45.37.1.72.29,1.11.3.01.09-.03.13-.09.16-.15.09-.31.17-.47.25-.15.07-.29.17-.39.3-.03.05-.1.08-.08.15.02.07.09.06.15.07.13,0,.26.01.39.02.1,0,.25-.05.3.05.06.13-.12.18-.17.27-.02.03-.04.05-.01.1.24.11.5.11.75.15.06,0,.13.02.13.09,0,.03-.07.06-.11.08-.09.02-.18.04-.28.05-.1.02-.21.04-.31.07-.09.02-.11.09-.05.16.14.19.31.35.5.5.03.02.06.05.03.09-.02.03-.05.05-.08.05-.28.03-.56.08-.83.16-.71.2-1.41.38-2.15.46-.2.02-.39.08-.57.19-.12.07-.12.17-.01.25.2.15.4.3.6.44.29.21.58.41.87.61.07.05.07.1.03.18-.09.15-.08.15.01.27.1.13.26.19.37.3,0,.08-.05.12-.09.16-.07.08-.14.16-.22.23-.45.35-.37.31.08.58.12.07.26.12.4.13.31.02.56.16.76.39.1.11.11.15.01.27-.16.22-.32.44-.52.63-.07.06-.13.14-.18.22-.04.05-.03.11.04.14.25.13.51.25.8.28.14.01.28.05.42.07.08.01.16.04.23.09.06.05.09.12.05.19-.05.08-.11.15-.17.23-.03.05-.1.08-.08.15.02.08.1.05.15.05.18-.01.32.08.44.19.09.08.08.2-.01.27-.07.06-.17.09-.23.16-.26.32-.5.66-.75.99-.06.08-.03.16.07.19.23.07.47.06.7.04.21-.02.42-.05.63-.07.09,0,.14.05.12.13-.02.09-.06.18-.08.27-.04.12-.12.23-.1.37.07,0,.13,0,.18,0,.15.01.31.02.46.04.1.01.14.08.11.18-.02.06-.03.11-.06.17-.07.14-.13.28-.21.41-.22.4-.29.85-.33,1.29,0,.07,0,.14.01.21.01.1.08.15.17.11.18-.07.35-.14.51-.25.06-.04.12-.08.19-.1.19-.07.35.06.33.27,0,.04-.05.08,0,.12.08,0,.16-.02.24-.02.07,0,.14,0,.21,0,.1.01.15.06.15.16,0,.13-.01.25-.02.38.35.02.52.01.77-.11.23-.11.48-.12.73-.13.09,0,.13.06.09.14-.12.23-.24.46-.37.68-.12.19-.13.18.07.34.06.05.14.09.22.12.32.12.32.13.27.46,0,.05-.01.09-.03.14-.15.4-.19.83-.3,1.24-.03.14-.05.28-.06.42-.01.18,0,.36.05.53.06.18.13.23.31.22.27,0,.51-.1.74-.22.33-.17.67-.3,1.01-.44.22-.09.3-.04.31.21,0,.06,0,.12,0,.18.01.18.04.35.11.52.04.08.09.1.17.07.31-.14.62-.29.84-.57.08-.1.18-.19.27-.28.04-.04.09-.07.14-.1.05-.03.14,0,.15.05.02.08.03.16.03.24,0,.17.05.33.14.47.1.17.22.33.34.51.32-.18.58-.39.73-.74.13-.3.29-.59.53-.83.06-.06.12-.11.19-.15.05-.03.12-.02.15.05.04.09.07.18.11.26.03.08.1.09.18.04.08-.06.14-.12.18-.21.03-.09.07-.18.09-.27.06-.29.25-.47.49-.61.12-.07.19-.05.27.07.1.15.16.32.2.49.06.23.17.44.26.66.02.05.04.12.11.11.09-.03.12-.11.17-.18.27-.41.5-.83.51-1.34,0-.17.05-.33.11-.48.06-.17.11-.34.17-.5.03-.08.04-.19.13-.19.11,0,.1.11.12.19,0,.01,0,.02,0,.03.01.03.01.08.06.07.03,0,.08-.03.08-.05.1-.28.34-.45.54-.64.25-.24.5-.47.74-.71.37-.36.75-.72,1.12-1.09.03-.03.08-.08.12-.04.03.02.03.09.02.13-.02.1-.04.21-.07.31-.11.41-.22.82-.34,1.23-.58,1.92-1.16,3.84-1.83,5.74-.32.9-.61,1.81-.86,2.74-.09.33-.18.66-.23,1-.17,1.31.13,2.51.8,3.63.28.47.66.86,1.02,1.26.22.25.47.47.61.77.04.09.11.15.21.18.35.1.64.31.93.51.57.4,1.18.74,1.8,1.06,1.28.64,2.56,1.28,3.82,1.94,1.65.86,3.29,1.76,4.95,2.62.58.3,1.04.71,1.45,1.22,1.73,2.16,3.13,4.52,4.37,6.98.57,1.12.99,2.3,1.16,3.55.04.32.07.65.1.97.19.29.36.58.49.88,0-.17.03-.35.03-.52,0-.82-.11-1.62-.35-2.41-.31-1.01-.72-1.97-1.15-2.93ZM265.06,83.61c-.11.14-.23.27-.36.39-.08.08-.15.18-.27.21-.12-.09-.06-.24-.09-.36-.01-.06-.01-.12-.03-.17-.13-.47-.06-.94,0-1.41.03-.23.11-.44.25-.62.14-.2.29-.4.46-.58.31-.34.64-.66,1.01-.93.3-.22.63-.38.96-.53.08,0,.1.02.11.05.03.07.01.14,0,.21-.06.29-.17.57-.29.83-.46,1.04-1.07,2-1.75,2.9ZM264.89,99.61c-.18-.05-.33-.13-.45-.27-.61-.71-1.09-1.48-1.28-2.41-.08-.38-.06-.75-.03-1.13.04-.7.21-1.38.43-2.04.44-1.33.89-2.66,1.33-4,.65-1.95,1.23-3.92,1.82-5.89.14-.46.29-.92.42-1.39.1-.33.25-.64.39-.95.22-.47.44-.94.66-1.41.12-.25.23-.49.4-.71.03-.04.06-.07.1-.11.2.06.33.2.4.38.3.68.59,1.37.6,2.13,0,.77-.12,1.5-.53,2.17-.28.46-.57.92-.86,1.39-.06.09-.13.17-.19.25-.04.05-.08.09-.07.16,0,.03.02.07.04.09,0,0,.05,0,.06,0,.07-.04.13-.1.2-.14.04-.02.1.02.1.07,0,.05,0,.1-.02.14-.1.33-.15.67-.31.97-.04.07-.07.15-.11.22-.07.15-.08.29.05.42.09.09.11.2.04.32-.07.11-.01.24.02.34.05.15.07.29.06.45-.03.41.1.79.32,1.14.13-.01.18-.12.21-.21.07-.2.19-.34.36-.47.11-.09.19-.21.28-.31.01-.01.04-.02.06-.02.02,0,.04.03.04.05,0,.08,0,.16-.02.25-.02.14-.03.28,0,.42.01.07,0,.17.06.19.1.04.13-.07.18-.13.02-.02.03-.03.05-.05.06-.04.15-.01.18.05.03.07.03.14.02.21-.07.33.03.66.08.98.02.17.14.32.22.48.03.07.11.07.18.02.09-.08.15-.18.21-.28.08-.13.16-.26.25-.39.03-.04.09-.03.12.02.02.04.05.08.06.13.06.29.21.55.37.8.06.09.1.18.16.28.02.04.05.09.11.08.06,0,.08-.05.08-.1.02-.14.09-.24.18-.34.03-.04.07-.06.12-.04.06.02.11.05.1.12-.02.1-.04.21-.07.31-.23.67-.49,1.33-.8,1.97-.07.15-.15.3-.24.44-.5.8-1.03,1.59-1.63,2.32-.65.8-1.41,1.5-2.18,2.17-.37.32-.8.55-1.23.76-.36.17-.72.21-1.1.09Z"/>
  <path class="st2" d="M261.47,112.75c12.76,0,24.28,5.17,32.65,13.54,8.34,8.34,13.51,19.89,13.51,32.62s-5.17,24.28-13.51,32.62c-8.37,8.37-19.89,13.54-32.65,13.54s-24.28-5.17-32.62-13.54c-8.34-8.34-13.51-19.89-13.51-32.62s5.16-24.28,13.51-32.62c8.34-8.37,19.89-13.54,32.62-13.54h0ZM291.16,129.25c-7.6-7.6-18.08-12.32-29.69-12.32s-22.06,4.72-29.66,12.32c-7.6,7.57-12.29,18.08-12.29,29.66s4.69,22.09,12.29,29.69c7.6,7.57,18.08,12.29,29.66,12.29s22.09-4.72,29.69-12.29c7.6-7.6,12.29-18.11,12.29-29.69s-4.69-22.09-12.29-29.66h0Z"/>
  <path class="st0" d="M261.29,122.85c19.58,0,35.45,15.86,35.45,35.42s-15.86,35.42-35.45,35.42-35.42-15.86-35.42-35.42,15.86-35.42,35.42-35.42h0ZM286.64,143.36c0-1.14.94-2.05,2.08-2.05s2.05.91,2.05,2.05v29.8c0,1.14-.91,2.05-2.05,2.05s-2.08-.91-2.08-2.05v-29.8ZM273.03,130.31c0-1.14.94-2.08,2.08-2.08s2.08.94,2.08,2.08v55.93c0,1.14-.94,2.05-2.08,2.05s-2.08-.91-2.08-2.05v-55.93ZM231.84,143.36c0-1.14.91-2.05,2.05-2.05s2.08.91,2.08,2.05v29.8c0,1.14-.94,2.05-2.08,2.05s-2.05-.91-2.05-2.05v-29.8ZM245.43,130.31c0-1.14.94-2.08,2.08-2.08s2.05.94,2.05,2.08v55.93c0,1.14-.91,2.05-2.05,2.05s-2.08-.91-2.08-2.05v-55.93ZM253.45,179.86,263.06,127.83c0-1.19-.97-2.16-2.16-2.16s-2.13.97-2.13,2.16v34.72h4.29v-34.72ZM265.43,180.7h-2.37v-18.15h-4.29v18.15h-2.37c-.85,0-1.77.43-2.47,1.04-.7.64-1.19,1.49-1.19,2.34v3.62c0,.52.24,1.07.61,1.46.4.4.91.67,1.46.67h12.21c.55,0,1.07-.27,1.43-.67.37-.4.64-.94.64-1.46v-3.62c0-.85-.52-1.71-1.19-2.34-.7-.61-1.64-1.04-2.47-1.04Z"/>
  <path class="st2" d="M261.29,120.77c10.36,0,19.73,4.22,26.52,10.98,6.79,6.79,10.98,16.16,10.98,26.52s-4.18,19.73-10.98,26.52c-6.79,6.79-16.16,10.98-26.52,10.98s-19.73-4.19-26.49-10.98c-6.79-6.79-10.98-16.16-10.98-26.52s4.19-19.73,10.98-26.52c6.76-6.76,16.16-10.98,26.49-10.98h0ZM284.88,134.67c-6.03-6.03-14.37-9.78-23.59-9.78s-17.53,3.75-23.59,9.78c-6.03,6.03-9.75,14.37-9.75,23.59s3.72,17.56,9.75,23.59c6.06,6.03,14.4,9.78,23.59,9.78s17.56-3.75,23.59-9.78c6.03-6.03,9.78-14.37,9.78-23.59s-3.75-17.56-9.78-23.59h0Z"/>
  <path class="st10" d="M131.92,114.74c-1.11-2.47-2.55-4.74-4.22-6.86-.1-.13-.2-.27-.28-.41-.12-.19-.09-.32.07-.47.09-.08.2-.12.31-.16,1.22-.47,2.45-.94,3.65-1.47,1.14-.5,2.28-1.01,3.39-1.6.07-.24.16-.47.26-.7-.74.44-1.49.86-2.27,1.21-1.86.83-3.73,1.61-5.67,2.23-.09.03-.18.04-.27.07-.19.06-.37.03-.55-.06-.13-.06-.26-.12-.38-.19-2.96-1.5-5.89-3.06-8.88-4.52-.51-.25-.99-.55-1.45-.88-.37-.27-.74-.55-1.04-.91-.1-.12-.06-.22.09-.26.05-.01.09-.02.14-.03.46-.09.87-.28,1.27-.53.47-.3.9-.65,1.29-1.05.47-.48.93-.97,1.39-1.46.31-.33.6-.67.84-1.05.4-.63.79-1.26,1.18-1.89.21-.34.39-.7.53-1.08.11-.29.23-.57.35-.85.02-.05.03-.12.1-.14.05,0,.07.05.09.09.09.15.17.31.27.46.13.19.25.19.38,0,.03-.05.05-.11.08-.16.07-.17.15-.35.22-.52.12-.31.25-.61.29-.95.02-.19.15-.32.29-.43.07-.06.15-.04.21.04.05.07.1.14.17.18.2.12.35.28.47.47.06.09.13.17.23.22.05.02.1,0,.11-.04.02-.04.02-.09.03-.14.05-.22,0-.45,0-.67,0-.03,0-.08.04-.08.03,0,.07,0,.1.02.17.1.25.28.31.46.04.11.07.23.15.32.03.03.1.03.12,0,.06-.09.08-.19.09-.3,0-.06.01-.12.08-.14.05-.02.12.03.16.11.02.04.04.09.05.13.05.31.24.56.36.84.02.04.05.08.08.11.06.07.16.05.21-.03.08-.15.09-.32.1-.48.01-.32.1-.63.21-.93.04-.11.12-.13.22-.09.11.05.19.14.27.22.13.12.26.24.39.36.06.05.14.01.15-.07.01-.19.02-.38.04-.57.01-.13.12-.17.24-.09.06.04.08.11.17.11.03-.06.07-.11.1-.17.11.05.17.14.24.22.15.17.32.31.51.44.06.05.15.02.17-.06.02-.07.03-.14.03-.21,0-.21,0-.42-.02-.64,0-.12,0-.24.03-.35.05-.15.11-.19.26-.16.13.03.25.07.38.09.08.02.14-.03.14-.11,0-.07-.01-.14-.01-.21,0-.08.05-.12.13-.13.12-.02.2.04.29.1.15.09.28.22.45.28.23.09.3.05.34-.18,0-.06.01-.12.02-.18.02-.13.04-.26.07-.38.03-.12.08-.15.21-.13.06,0,.12.02.17.04.16.05.31.11.47.16.11.04.15.01.14-.11,0-.05,0-.09,0-.14,0-.27,0-.27.27-.26.02,0,.05,0,.07,0,.51.05,1.01-.02,1.51-.14.09-.02.18-.05.27-.09.05-.02.07-.07.04-.12-.08-.17-.19-.33-.31-.47-.29-.34-.53-.72-.84-1.03.01-.07.05-.09.09-.12.13-.09.16-.17.07-.28-.05-.06-.12-.13-.19-.15-.19-.04-.26-.18-.33-.34-.03-.08-.03-.14.05-.18.11-.06.2-.12.28-.22.17-.23.13-.28-.07-.38-.06-.03-.12-.07-.19-.1-.2-.09-.33-.22-.34-.45,0-.06-.04-.11-.06-.16-.04-.12,0-.17.12-.2.15-.03.3-.02.45.03.09.03.14-.02.1-.11-.12-.29.02-.5.22-.69.15-.14.33-.23.53-.26.27-.04.54-.01.81.03.07.01.14.02.21.02.03,0,.06-.04.06-.08,0-.08-.02-.14-.1-.17-.08-.04-.17-.07-.26-.12-.02-.01-.05-.06-.04-.09,0-.03.03-.06.06-.07.18-.07.36-.11.55-.07.24.05.47.03.69-.07.03-.12-.12-.18-.08-.31.09-.05.2-.04.3-.05.33-.04.66-.07.99-.11.13-.01.26-.04.38-.1.11-.05.14-.17.06-.26-.13-.14-.24-.3-.41-.39-.25-.14-.45-.34-.67-.52-.1-.08-.18-.19-.25-.3-.07-.1-.19-.18-.23-.3.09-.08.16-.13.22-.2.18-.2.41-.3.68-.34.2-.02.4-.06.6-.09.07-.01.14-.03.2-.06.08-.05.09-.13.08-.22,0-.07-.05-.1-.12-.11-.15-.02-.27-.09-.37-.19-.01-.01-.02-.04-.02-.06,0-.04.03-.06.07-.07.17-.04.35-.05.53-.02.25.05.46-.02.66-.18.08-.07.17-.13.25-.19.11-.08.22-.12.36-.13.18-.02.35,0,.53,0,.06,0,.13,0,.16-.04.05-.06-.03-.09-.06-.14-.04-.07-.09-.14-.13-.21-.11-.19-.26-.34-.44-.45-.09-.06-.18-.11-.27-.17-.05-.03-.1-.07-.09-.14.12-.1.27-.12.43-.14.13-.01.26-.05.36-.12.09-.06.08-.19-.01-.23-.05-.02-.11-.04-.17-.06-.03-.01-.07-.02-.1-.03-.03-.02-.06-.04-.07-.07-.02-.05.03-.05.06-.06.24-.11.5-.13.76-.18.26-.05.49-.16.73-.26.05-.02.1-.07.14-.11.07-.07.07-.16,0-.22-.12-.11-.25-.21-.4-.29-.1-.06-.22-.09-.26-.22.04-.06.09-.08.15-.1.19-.06.38-.13.57-.19.23-.07.44-.18.64-.31.04-.03.08-.05.11-.09.07-.07.07-.15,0-.22-.07-.06-.15-.11-.23-.17-.08-.06-.09-.13-.03-.22.11-.19.28-.29.48-.34.33-.08.61-.25.86-.46.16-.13.32-.24.52-.3.11-.03.23-.07.3-.18.13-.17.29-.31.45-.45.08-.07.08-.14-.01-.2-.26-.18-.51-.37-.81-.5-.13-.06-.25-.11-.4-.11-.29,0-.55-.11-.81-.22-.16-.07-.32-.14-.5-.17-.08-.01-.17-.02-.22-.1-.09-.13-.22-.21-.35-.29-.08-.05-.12-.11-.06-.2.09-.15.08-.32.1-.48,0-.08-.04-.13-.11-.16-.04-.02-.09-.03-.14-.03-.63-.08-1.23-.31-1.86-.43-.13-.02-.14-.05-.15-.2,0-.2,0-.4-.01-.6-.01-.18-.05-.21-.22-.19-.05,0-.1,0-.14.02-.44.14-.9.22-1.28.5-.1.08-.21.15-.35.12-.06-.08.05-.19-.07-.27-.15.08-.32.11-.5.09-.13-.02-.26.02-.38.07-.08.03-.15.08-.23.07-.06,0-.09-.04-.09-.09,0-.06.02-.12.04-.17.08-.19.04-.37-.01-.55-.02-.08-.08-.11-.16-.08-.14.04-.26.11-.37.2-.17.13-.34.25-.52.37-.08.05-.16.1-.26.09-.29-.03-.56.06-.84.1-.22.03-.44.1-.63.22-.14.08-.3.15-.44.23-.54.3-1.09.57-1.56.98-.32.28-.69.45-1.1.54-.1.02-.21.06-.31.07-.3.03-.52-.27-.4-.53.17-.36.37-.71.69-.97.2-.16.42-.26.65-.35.51-.21,1.05-.36,1.54-.64.06-.03.13-.05.2-.06.33-.03.64-.15.96-.25.28-.1.49-.27.62-.55.03-.08.08-.15.11-.22.07-.16.19-.27.34-.35.16-.08.32-.14.48-.22.2-.09.4-.2.55-.37-.01-.02-.02-.03-.03-.04-.06-.07-.15-.06-.23-.09-.11-.05-.15-.17-.07-.25.05-.06.13-.1.19-.15.26-.18.5-.39.69-.65-.03-.02-.05-.04-.07-.05-.11-.08-.11-.08-.03-.14.17-.15.34-.29.51-.44.23-.2.46-.41.64-.66.08-.1.14-.22.2-.33.04-.08.02-.17-.06-.22-.44-.28-.88-.56-1.32-.83-.12-.08-.25-.12-.4-.11-.05,0-.08-.06-.05-.1.01-.02.02-.04.04-.06.25-.26.43-.56.61-.87.09-.15.08-.21-.04-.34-.04-.04-.09-.08-.13-.12-.11-.1-.23-.2-.34-.31-.09-.08-.08-.14.01-.19.2-.11.39-.22.57-.36.23-.18.38-.25-.03-.43-.01,0-.02-.01-.03-.02-.05-.03-.05-.1-.02-.15.09-.12.22-.18.35-.23.24-.1.45-.26.65-.43.17-.15.17-.22.04-.39-.1-.12-.2-.23-.34-.31-.11-.07-.23-.13-.32-.22-.23-.22-.49-.36-.79-.45-.22-.07-.21-.13-.17-.31.02-.09.07-.17.13-.25.1-.14.22-.25.34-.36.17-.15.35-.28.48-.47-.1-.14-.24-.2-.37-.28-.33-.22-.35-.36-.11-.66.2-.24.36-.49.49-.77.06-.13.13-.26.21-.37.16-.22.08-.28-.08-.41-.2-.15-.42-.28-.65-.35-.32-.1-.44-.38-.62-.59-.02-.03-.01-.07.02-.09.06-.04.12-.07.17-.12.11-.1.17-.22.2-.37.02-.12-.07-.19-.13-.28-.03-.04-.06-.07-.08-.12-.11-.22-.17-.44.03-.65.14-.15.18-.33.11-.53-.07-.17-.01-.32.07-.48-.24-.03-.42-.13-.6-.25-.16-.11-.35-.18-.53-.28-.08-.04-.22.01-.25-.1-.02-.08,0-.19.02-.28.02-.12.05-.23.09-.34.06-.17.08-.35.06-.52-.02-.14-.05-.28-.07-.42-.01-.1-.07-.15-.16-.15-.17,0-.28-.11-.38-.22-.07-.08-.13-.17-.16-.27-.03-.12-.1-.22-.19-.3-.22-.2-.34-.44-.34-.74,0-.17-.09-.21-.27-.17-.02,0-.05,0-.07.02-.26.2-.55.14-.84.09-.01,0-.02,0-.04,0-.27,0-.52.06-.67.31-.02.04-.05.08-.11.07-.18-.23-.17-.24-.33-.29-.11-.03-.19-.13-.28-.14-.11,0-.21.07-.32.11-.08.03-.16.05-.24.08-.26.09-.5.21-.67.44-.06.08-.11.08-.18.03-.09-.06-.17-.13-.2-.24-.04-.11-.12-.18-.22-.22-.21-.08-.39-.22-.55-.38-.09-.09-.16-.08-.25,0-.09.09-.18.18-.31.23-.25.09-.47.24-.64.44-.22.25-.49.44-.73.67-.12.12-.17.12-.31.03-.12-.08-.24-.15-.35-.24-.12-.1-.25-.18-.4-.22-.15-.04-.29-.11-.41-.2-.05-.03-.1-.06-.15-.09-.11-.05-.17-.04-.23.07-.15.28-.38.52-.49.82-.02.04-.04.09-.07.12-.22.24-.38.51-.48.82-.03.08-.09.1-.17.09-.24-.04-.49-.1-.72-.18-.08-.03-.14,0-.17.08-.15.39-.43.7-.57,1.12-.27-.15-.53-.25-.67-.52-.05-.09-.13-.17-.23-.22-.18-.11-.37-.21-.55-.31-.07-.04-.13-.03-.2.02-.27.23-.53.46-.71.78-.13.23-.26.45-.15.73,0,.02,0,.05-.01.07-.1.04-.17-.05-.26-.07-.06-.01-.12,0-.15.07-.09.18-.13.38-.16.58-.01.07-.01.14-.03.21-.02.07-.09.11-.17.08-.08-.03-.15-.07-.22-.11-.16-.08-.34-.09-.52-.07-.08.01-.14.05-.12.14.02.16,0,.31-.05.45-.07.2-.09.41-.13.62-.03.17-.06.35-.08.52-.02.13-.09.24-.16.35-.04.05-.09.07-.16.05-.26-.09-.52-.16-.72-.37-.09-.09-.19-.17-.32-.23-.33-.14-.65-.28-.98-.42-.11-.05-.22-.09-.34-.09-.39.01-.38-.02-.42.35,0,.04,0,.07-.02.1-.09.3-.08.61-.06.91,0,.13.05.26.01.38-.16.07-.32-.04-.48.03.01.35.23.63.21.98-.08-.02-.13-.02-.19-.04-.06-.02-.11-.04-.16-.07-.36-.22-.37-.11-.4.25-.01.19-.04.38.04.56.16.34.1.72.22,1.07.01.03-.03.07-.07.06-.08-.02-.15-.06-.23-.08-.11-.03-.22-.07-.35-.06-.09.01-.15.07-.13.17.05.28.11.56.26.8.09.14.13.3.17.46.15.75.19,1.5.2,2.26,0,.15-.02.31-.04.46-.01.08-.05.16-.08.23-.02.05-.07.08-.11.05-.27-.18-.48-.42-.55-.75-.04-.21-.08-.42-.12-.63-.04-.23-.06-.47-.03-.7.01-.09.01-.19.01-.28,0-.07-.04-.1-.11-.1-.07,0-.1-.04-.13-.1-.04-.1-.07-.2-.12-.29-.07-.14-.08-.27-.03-.41.03-.1.06-.2.09-.31.02-.07-.02-.1-.11-.09-.19.02-.2.02-.25-.13-.09-.27-.14-.55-.19-.83-.04-.25-.12-.48-.25-.69-.04-.06-.09-.09-.18-.06-.31.09-.54.28-.74.53-.16.19-.18.21-.39.02-.09-.08-.15-.19-.2-.29-.07-.15-.13-.3-.2-.45-.05-.1-.08-.22-.18-.29-.19.05-.31.22-.48.26-.21-.11-.22-.34-.31-.5-.1,0-.09.11-.18.11-.09-.17-.13-.37-.16-.57-.06-.35-.29-.58-.57-.79-.12.13-.25.23-.39.32-.18.12-.35.24-.39.48,0,.02-.02.04-.04.06-.05.07-.12.08-.17,0-.15-.2-.32-.38-.55-.49-.2-.11-.38-.23-.53-.41-.11-.13-.24-.23-.4-.29-.27-.11-.37-.08-.55.15-.06.08-.1.16-.13.25-.05.14-.07.13-.21.1-.14-.04-.27-.08-.39-.17-.25-.2-.54-.28-.86-.28-.29,0-.56-.1-.82-.2-.15-.06-.3-.14-.45-.21-.15-.08-.3-.13-.47-.13-.19,0-.37-.02-.55-.11-.1-.05-.23-.08-.35-.04-.23.07-.46.11-.7.08-.06,0-.11.07-.08.12.05.09.09.19.11.3.01.12.04.23.09.34.2.41.24.86.31,1.3.02.11-.02.14-.14.15-.01,0-.02,0-.04,0-.17,0-.17,0-.1.13.06.1.12.2.1.33-.05.26-.01.52,0,.78,0,.08.04.16-.01.25-.04,0-.09.02-.14.01-.08-.01-.16-.04-.24-.06-.2-.05-.37.04-.53.15-.13.1-.05.24-.04.36,0,.01,0,.02,0,.04-.03.26.09.45.29.61.1.08.2.17.26.29.06.1.05.14-.04.21-.11.08-.26.11-.34.23.05.11.13.18.2.26.12.13.24.26.35.4.06.08.03.16-.07.19-.07.02-.14.03-.21,0-.04-.02-.09-.03-.13-.05-.27-.11-.53-.1-.78.05-.02.01-.04.02-.07.03-.17.08-.18.12-.08.29.19.33.38.65.65.92.16.16.3.34.4.54.17.34.08.5-.31.51-.12,0-.24-.02-.35-.03-.03,0-.07-.01-.1-.02-.05,0-.09.05-.07.1.08.17.17.34.26.5.04.07.11.14.04.22-.06.06-.13.03-.2.01-.08-.02-.16-.04-.23-.08-.37-.19-.73-.38-1.02-.69-.04-.05-.11-.03-.13.04-.01.05-.03.09-.02.14.08.38.07.78.25,1.14.08.15.11.31.17.47.06.16.07.32.08.49,0,.08-.02.13-.09.18-.08.05-.18.07-.21.18.04.13.2.17.23.31.04.18.17.31.31.42.07.06.15.12.18.22.02.07,0,.15-.06.18-.08.03-.15.06-.23.08-.12.04-.16.11-.08.2.17.23.25.51.38.76.05.11.08.22.09.34.02.22-.03.3-.26.34-.13.03-.26.05-.38.08-.18.04-.19.07-.13.24.06.16.05.18-.11.21-.16.03-.33.04-.49.09-.32.09-.63.19-.95.29-.1.03-.21.05-.26.14,0,.09.05.15.09.2.13.15.27.29.41.45.19.22.42.38.69.48.13.05.23.13.32.21.06.05.05.1,0,.14-.12.07-.25.13-.37.21-.1.07-.09.17.02.22.06.03.13.05.2.06.2.04.38.13.56.21.09.04.17.09.23.16.03.04.04.09-.01.12s-.11.05-.16.07c-.21.07-.41.17-.61.31.02.05.04.09.06.13.15.26.4.38.66.45.37.1.72.29,1.11.3.01.09-.03.13-.09.16-.15.09-.31.17-.47.25-.15.07-.29.17-.39.3-.03.05-.1.08-.08.15.02.07.09.06.15.07.13,0,.26.01.39.02.1,0,.25-.05.3.05.06.13-.12.18-.17.27-.02.03-.04.05-.01.1.24.11.5.11.75.15.06,0,.13.02.13.09,0,.03-.07.06-.11.08-.09.02-.18.04-.28.05-.1.02-.21.04-.31.07-.09.02-.11.09-.05.16.14.19.31.35.5.5.03.02.06.05.03.09-.02.03-.05.05-.08.05-.28.03-.56.08-.83.16-.71.2-1.41.38-2.15.46-.2.02-.39.08-.57.19-.12.07-.12.17-.01.25.2.15.4.3.6.44.29.21.58.41.87.61.07.05.07.1.03.18-.09.15-.08.15.01.27.1.13.26.19.37.3,0,.08-.05.12-.09.16-.07.08-.14.16-.22.23-.45.35-.37.31.08.58.12.07.26.12.4.13.31.02.56.16.76.39.1.11.11.15.01.27-.16.22-.32.44-.52.63-.07.06-.13.14-.18.22-.04.05-.03.11.04.14.25.13.51.25.8.28.14.01.28.05.42.07.08.01.16.04.23.09.06.05.09.12.05.19-.05.08-.11.15-.17.23-.03.05-.1.08-.08.15.02.08.1.05.15.05.18-.01.32.08.44.19.09.08.08.2-.01.27-.07.06-.17.09-.23.16-.26.32-.5.66-.75.99-.06.08-.03.16.07.19.23.07.47.06.7.04.21-.02.42-.05.63-.07.09,0,.14.05.12.13-.02.09-.06.18-.08.27-.04.12-.12.23-.1.37.07,0,.13,0,.18,0,.15.01.31.02.46.04.1.01.14.08.11.18-.02.06-.03.11-.06.17-.07.14-.13.28-.21.41-.22.4-.29.85-.33,1.29,0,.07,0,.14.01.21.01.1.08.15.17.11.18-.07.35-.14.51-.25.06-.04.12-.08.19-.1.19-.07.35.06.33.27,0,.04-.05.08,0,.12.08,0,.16-.02.24-.02.07,0,.14,0,.21,0,.1.01.15.06.15.16,0,.13-.01.25-.02.38.35.02.52.01.77-.11.23-.11.48-.12.73-.13.09,0,.13.06.09.14-.12.23-.24.46-.37.68-.12.19-.13.18.07.34.06.05.14.09.22.12.32.12.32.13.27.46,0,.05-.01.09-.03.14-.15.4-.19.83-.3,1.24-.03.14-.05.28-.06.42-.01.18,0,.36.05.53.06.18.13.23.31.22.27,0,.51-.1.74-.22.33-.17.67-.3,1.01-.44.22-.09.3-.04.31.21,0,.06,0,.12,0,.18.01.18.04.35.11.52.04.08.09.1.17.07.31-.14.62-.29.84-.57.08-.1.18-.19.27-.28.04-.04.09-.07.14-.1.05-.03.14,0,.15.05.02.08.03.16.03.24,0,.17.05.33.14.47.1.17.22.33.34.51.32-.18.58-.39.73-.74.13-.3.29-.59.53-.83.06-.06.12-.11.19-.15.05-.03.12-.02.15.05.04.09.07.18.11.26.03.08.1.09.18.04.08-.06.14-.12.18-.21.03-.09.07-.18.09-.27.06-.29.25-.47.49-.61.12-.07.19-.05.27.07.1.15.16.32.2.49.06.23.17.44.26.66.02.05.04.12.11.11.09-.03.12-.11.17-.18.27-.41.5-.83.51-1.34,0-.17.05-.33.11-.48.06-.17.11-.34.17-.5.03-.08.04-.19.13-.19.11,0,.1.11.12.19,0,.01,0,.02,0,.03.01.03.01.08.06.07.03,0,.08-.03.08-.05.1-.28.34-.45.54-.64.25-.24.5-.47.74-.71.37-.36.75-.72,1.12-1.09.03-.03.08-.08.12-.04.03.02.03.09.02.13-.02.1-.04.21-.07.31-.11.41-.22.82-.34,1.23-.58,1.92-1.16,3.84-1.83,5.74-.32.9-.61,1.81-.86,2.74-.09.33-.18.66-.23,1-.17,1.31.13,2.51.8,3.63.28.47.66.86,1.02,1.26.22.25.47.47.61.77.04.09.11.15.21.18.35.1.64.31.93.51.57.4,1.18.74,1.8,1.06,1.28.64,2.56,1.28,3.82,1.94,1.65.86,3.29,1.76,4.95,2.62.58.3,1.04.71,1.45,1.22,1.73,2.16,3.13,4.52,4.37,6.98.57,1.12.99,2.3,1.16,3.55.04.32.07.65.1.97.19.29.36.58.49.88,0-.17.03-.35.03-.52,0-.82-.11-1.62-.35-2.41-.31-1.01-.72-1.97-1.15-2.93ZM114.2,83.21c-.11.14-.23.27-.36.39-.08.08-.15.18-.27.21-.12-.09-.06-.24-.09-.36-.01-.06-.01-.12-.03-.17-.13-.47-.06-.94,0-1.41.03-.23.11-.44.25-.62.14-.2.29-.4.46-.58.31-.34.64-.66,1.01-.93.3-.22.63-.38.96-.53.08,0,.1.02.11.05.03.07.01.14,0,.21-.06.29-.17.57-.29.83-.46,1.04-1.07,2-1.75,2.9ZM114.03,99.2c-.18-.05-.33-.13-.45-.27-.61-.71-1.09-1.48-1.28-2.41-.08-.38-.06-.75-.03-1.13.04-.7.21-1.38.43-2.04.44-1.33.89-2.66,1.33-4,.65-1.95,1.23-3.92,1.82-5.89.14-.46.29-.92.42-1.39.1-.33.25-.64.39-.95.22-.47.44-.94.66-1.41.12-.25.23-.49.4-.71.03-.04.06-.07.1-.11.2.06.33.2.4.38.3.68.59,1.37.6,2.13,0,.77-.12,1.5-.53,2.17-.28.46-.57.92-.86,1.39-.06.09-.13.17-.19.25-.04.05-.08.09-.07.16,0,.03.02.07.04.09,0,0,.05,0,.06,0,.07-.04.13-.1.2-.14.04-.02.1.02.1.07,0,.05,0,.1-.02.14-.1.33-.15.67-.31.97-.04.07-.07.15-.11.22-.07.15-.08.29.05.42.09.09.11.2.04.32-.07.11-.01.24.02.34.05.15.07.29.06.45-.03.41.1.79.32,1.14.13-.01.18-.12.21-.21.07-.2.19-.34.36-.47.11-.09.19-.21.28-.31.01-.01.04-.02.06-.02.02,0,.04.03.04.05,0,.08,0,.16-.02.25-.02.14-.03.28,0,.42.01.07,0,.17.06.19.1.04.13-.07.18-.13.02-.02.03-.03.05-.05.06-.04.15-.01.18.05.03.07.03.14.02.21-.07.33.03.66.08.98.02.17.14.32.22.48.03.07.11.07.18.02.09-.08.15-.18.21-.28.08-.13.16-.26.25-.39.03-.04.09-.03.12.02.02.04.05.08.06.13.06.29.21.55.37.8.06.09.1.18.16.28.02.04.05.09.11.08.06,0,.08-.05.08-.1.02-.14.09-.24.18-.34.03-.04.07-.06.12-.04.06.02.11.05.1.12-.02.1-.04.21-.07.31-.23.67-.49,1.33-.8,1.97-.07.15-.15.3-.24.44-.5.8-1.03,1.59-1.63,2.32-.65.8-1.41,1.5-2.18,2.17-.37.32-.8.55-1.23.76-.36.17-.72.21-1.1.09Z"/>
  <path class="st13" d="M110.61,112.35c12.76,0,24.28,5.17,32.65,13.54,8.34,8.34,13.51,19.89,13.51,32.62s-5.17,24.28-13.51,32.62c-8.37,8.37-19.89,13.54-32.65,13.54s-24.28-5.17-32.62-13.54c-8.34-8.34-13.51-19.89-13.51-32.62s5.16-24.28,13.51-32.62c8.34-8.37,19.89-13.54,32.62-13.54h0ZM140.29,128.85c-7.6-7.6-18.08-12.32-29.69-12.32s-22.06,4.72-29.66,12.32c-7.6,7.57-12.29,18.08-12.29,29.66s4.69,22.09,12.29,29.69c7.6,7.57,18.08,12.29,29.66,12.29s22.09-4.72,29.69-12.29c7.6-7.6,12.29-18.11,12.29-29.69s-4.69-22.09-12.29-29.66h0Z"/>
  <path class="st4" d="M110.43,122.45c19.58,0,35.45,15.86,35.45,35.42s-15.86,35.42-35.45,35.42-35.42-15.86-35.42-35.42,15.86-35.42,35.42-35.42h0ZM135.77,142.96c0-1.14.94-2.05,2.08-2.05s2.05.91,2.05,2.05v29.8c0,1.14-.91,2.05-2.05,2.05s-2.08-.91-2.08-2.05v-29.8ZM122.16,129.91c0-1.14.94-2.08,2.08-2.08s2.08.94,2.08,2.08v55.93c0,1.14-.94,2.05-2.08,2.05s-2.08-.91-2.08-2.05v-55.93ZM80.98,142.96c0-1.14.91-2.05,2.05-2.05s2.08.91,2.08,2.05v29.8c0,1.14-.94,2.05-2.08,2.05s-2.05-.91-2.05-2.05v-29.8ZM94.56,129.91c0-1.14.94-2.08,2.08-2.08s2.05.94,2.05,2.08v55.93c0,1.14-.91,2.05-2.05,2.05s-2.08-.91-2.08-2.05v-55.93ZM102.58,179.46,112.2,127.43c0-1.19-.97-2.16-2.16-2.16s-2.13.97-2.13,2.16v34.72h4.29v-34.72ZM114.57,180.3h-2.37v-18.15h-4.29v18.15h-2.37c-.85,0-1.77.43-2.47,1.04-.7.64-1.19,1.49-1.19,2.34v3.62c0,.52.24,1.07.61,1.46.4.4.91.67,1.46.67h12.21c.55,0,1.07-.27,1.43-.67.37-.4.64-.94.64-1.46v-3.62c0-.85-.52-1.71-1.19-2.34-.7-.61-1.64-1.04-2.47-1.04Z"/>
  <path class="st13" d="M110.43,120.37c10.36,0,19.73,4.22,26.52,10.98,6.79,6.79,10.98,16.16,10.98,26.52s-4.18,19.73-10.98,26.52c-6.79,6.79-16.16,10.98-26.52,10.98s-19.73-4.19-26.49-10.98c-6.79-6.79-10.98-16.16-10.98-26.52s4.19-19.73,10.98-26.52c6.76-6.76,16.16-10.98,26.49-10.98h0ZM134.02,134.27c-6.03-6.03-14.37-9.78-23.59-9.78s-17.53,3.75-23.59,9.78c-6.03,6.03-9.75,14.37-9.75,23.59s3.72,17.56,9.75,23.59c6.06,6.03,14.4,9.78,23.59,9.78s17.56-3.75,23.59-9.78c6.03-6.03,9.78-14.37,9.78-23.59s-3.75-17.56-9.78-23.59h0Z"/>
  <path class="st11" d="M434.01,114.43c-1.11-2.47-2.55-4.74-4.22-6.86-.1-.13-.2-.27-.28-.41-.12-.19-.09-.32.07-.47.09-.08.2-.12.31-.16,1.22-.47,2.45-.94,3.65-1.47,1.14-.5,2.28-1.01,3.39-1.6.07-.24.16-.47.26-.7-.74.44-1.49.86-2.27,1.21-1.86.83-3.73,1.61-5.67,2.23-.09.03-.18.04-.27.07-.19.06-.37.03-.55-.06-.13-.06-.26-.12-.38-.19-2.96-1.5-5.89-3.06-8.88-4.52-.51-.25-.99-.55-1.45-.88-.37-.27-.74-.55-1.04-.91-.1-.12-.06-.22.09-.26.05-.01.09-.02.14-.03.46-.09.87-.28,1.27-.53.47-.3.9-.65,1.29-1.05.47-.48.93-.97,1.39-1.46.31-.33.6-.67.84-1.05.4-.63.79-1.26,1.18-1.89.21-.34.39-.7.53-1.08.11-.29.23-.57.35-.85.02-.05.03-.12.1-.14.05,0,.07.05.09.09.09.15.17.31.27.46.13.19.25.19.38,0,.03-.05.05-.11.08-.16.07-.17.15-.35.22-.52.12-.31.25-.61.29-.95.02-.19.15-.32.29-.43.07-.06.15-.04.21.04.05.07.1.14.17.18.2.12.35.28.47.47.06.09.13.17.23.22.05.02.1,0,.11-.04.02-.04.02-.09.03-.14.05-.22,0-.45,0-.67,0-.03,0-.08.04-.08.03,0,.07,0,.1.02.17.1.25.28.31.46.04.11.07.23.15.32.03.03.1.03.12,0,.06-.09.08-.19.09-.3,0-.06.01-.12.08-.14.05-.02.12.03.16.11.02.04.04.09.05.13.05.31.24.56.36.84.02.04.05.08.08.11.06.07.16.05.21-.03.08-.15.09-.32.1-.48.01-.32.1-.63.21-.93.04-.11.12-.13.22-.09.11.05.19.14.27.22.13.12.26.24.39.36.06.05.14.01.15-.07.01-.19.02-.38.04-.57.01-.13.12-.17.24-.09.06.04.08.11.17.11.03-.06.07-.11.1-.17.11.05.17.14.24.22.15.17.32.31.51.44.06.05.15.02.17-.06.02-.07.03-.14.03-.21,0-.21,0-.42-.02-.64,0-.12,0-.24.03-.35.05-.15.11-.19.26-.16.13.03.25.07.38.09.08.02.14-.03.14-.11,0-.07-.01-.14-.01-.21,0-.08.05-.12.13-.13.12-.02.2.04.29.1.15.09.28.22.45.28.23.09.3.05.34-.18,0-.06.01-.12.02-.18.02-.13.04-.26.07-.38.03-.12.08-.15.21-.13.06,0,.12.02.17.04.16.05.31.11.47.16.11.04.15.01.14-.11,0-.05,0-.09,0-.14,0-.27,0-.27.27-.26.02,0,.05,0,.07,0,.51.05,1.01-.02,1.51-.14.09-.02.18-.05.27-.09.05-.02.07-.07.04-.12-.08-.17-.19-.33-.31-.47-.29-.34-.53-.72-.84-1.03.01-.07.05-.09.09-.12.13-.09.16-.17.07-.28-.05-.06-.12-.13-.19-.15-.19-.04-.26-.18-.33-.34-.03-.08-.03-.14.05-.18.11-.06.2-.12.28-.22.17-.23.13-.28-.07-.38-.06-.03-.12-.07-.19-.1-.2-.09-.33-.22-.34-.45,0-.06-.04-.11-.06-.16-.04-.12,0-.17.12-.2.15-.03.3-.02.45.03.09.03.14-.02.1-.11-.12-.29.02-.5.22-.69.15-.14.33-.23.53-.26.27-.04.54-.01.81.03.07.01.14.02.21.02.03,0,.06-.04.06-.08,0-.08-.02-.14-.1-.17-.08-.04-.17-.07-.26-.12-.02-.01-.05-.06-.04-.09,0-.03.03-.06.06-.07.18-.07.36-.11.55-.07.24.05.47.03.69-.07.03-.12-.12-.18-.08-.31.09-.05.2-.04.3-.05.33-.04.66-.07.99-.11.13-.01.26-.04.38-.1.11-.05.14-.17.06-.26-.13-.14-.24-.3-.41-.39-.25-.14-.45-.34-.67-.52-.1-.08-.18-.19-.25-.3-.07-.1-.19-.18-.23-.3.09-.08.16-.13.22-.2.18-.2.41-.3.68-.34.2-.02.4-.06.6-.09.07-.01.14-.03.2-.06.08-.05.09-.13.08-.22,0-.07-.05-.1-.12-.11-.15-.02-.27-.09-.37-.19-.01-.01-.02-.04-.02-.06,0-.04.03-.06.07-.07.17-.04.35-.05.53-.02.25.05.46-.02.66-.18.08-.07.17-.13.25-.19.11-.08.22-.12.36-.13.18-.02.35,0,.53,0,.06,0,.13,0,.16-.04.05-.06-.03-.09-.06-.14-.04-.07-.09-.14-.13-.21-.11-.19-.26-.34-.44-.45-.09-.06-.18-.11-.27-.17-.05-.03-.1-.07-.09-.14.12-.1.27-.12.43-.14.13-.01.26-.05.36-.12.09-.06.08-.19-.01-.23-.05-.02-.11-.04-.17-.06-.03-.01-.07-.02-.1-.03-.03-.02-.06-.04-.07-.07-.02-.05.03-.05.06-.06.24-.11.5-.13.76-.18.26-.05.49-.16.73-.26.05-.02.1-.07.14-.11.07-.07.07-.16,0-.22-.12-.11-.25-.21-.4-.29-.1-.06-.22-.09-.26-.22.04-.06.09-.08.15-.1.19-.06.38-.13.57-.19.23-.07.44-.18.64-.31.04-.03.08-.05.11-.09.07-.07.07-.15,0-.22-.07-.06-.15-.11-.23-.17-.08-.06-.09-.13-.03-.22.11-.19.28-.29.48-.34.33-.08.61-.25.86-.46.16-.13.32-.24.52-.3.11-.03.23-.07.3-.18.13-.17.29-.31.45-.45.08-.07.08-.14-.01-.2-.26-.18-.51-.37-.81-.5-.13-.06-.25-.11-.4-.11-.29,0-.55-.11-.81-.22-.16-.07-.32-.14-.5-.17-.08-.01-.17-.02-.22-.1-.09-.13-.22-.21-.35-.29-.08-.05-.12-.11-.06-.2.09-.15.08-.32.1-.48,0-.08-.04-.13-.11-.16-.04-.02-.09-.03-.14-.03-.63-.08-1.23-.31-1.86-.43-.13-.02-.14-.05-.15-.2,0-.2,0-.4-.01-.6-.01-.18-.05-.21-.22-.19-.05,0-.1,0-.14.02-.44.14-.9.22-1.28.5-.1.08-.21.15-.35.12-.06-.08.05-.19-.07-.27-.15.08-.32.11-.5.09-.13-.02-.26.02-.38.07-.08.03-.15.08-.23.07-.06,0-.09-.04-.09-.09,0-.06.02-.12.04-.17.08-.19.04-.37-.01-.55-.02-.08-.08-.11-.16-.08-.14.04-.26.11-.37.2-.17.13-.34.25-.52.37-.08.05-.16.1-.26.09-.29-.03-.56.06-.84.1-.22.03-.44.1-.63.22-.14.08-.3.15-.44.23-.54.3-1.09.57-1.56.98-.32.28-.69.45-1.1.54-.1.02-.21.06-.31.07-.3.03-.52-.27-.4-.53.17-.36.37-.71.69-.97.2-.16.42-.26.65-.35.51-.21,1.05-.36,1.54-.64.06-.03.13-.05.2-.06.33-.03.64-.15.96-.25.28-.1.49-.27.62-.55.03-.08.08-.15.11-.22.07-.16.19-.27.34-.35.16-.08.32-.14.48-.22.2-.09.4-.2.55-.37-.01-.02-.02-.03-.03-.04-.06-.07-.15-.06-.23-.09-.11-.05-.15-.17-.07-.25.05-.06.13-.1.19-.15.26-.18.5-.39.69-.65-.03-.02-.05-.04-.07-.05-.11-.08-.11-.08-.03-.14.17-.15.34-.29.51-.44.23-.2.46-.41.64-.66.08-.1.14-.22.2-.33.04-.08.02-.17-.06-.22-.44-.28-.88-.56-1.32-.83-.12-.08-.25-.12-.4-.11-.05,0-.08-.06-.05-.1.01-.02.02-.04.04-.06.25-.26.43-.56.61-.87.09-.15.08-.21-.04-.34-.04-.04-.09-.08-.13-.12-.11-.1-.23-.2-.34-.31-.09-.08-.08-.14.01-.19.2-.11.39-.22.57-.36.23-.18.38-.25-.03-.43-.01,0-.02-.01-.03-.02-.05-.03-.05-.1-.02-.15.09-.12.22-.18.35-.23.24-.1.45-.26.65-.43.17-.15.17-.22.04-.39-.1-.12-.2-.23-.34-.31-.11-.07-.23-.13-.32-.22-.23-.22-.49-.36-.79-.45-.22-.07-.21-.13-.17-.31.02-.09.07-.17.13-.25.1-.14.22-.25.34-.36.17-.15.35-.28.48-.47-.1-.14-.24-.2-.37-.28-.33-.22-.35-.36-.11-.66.2-.24.36-.49.49-.77.06-.13.13-.26.21-.37.16-.22.08-.28-.08-.41-.2-.15-.42-.28-.65-.35-.32-.1-.44-.38-.62-.59-.02-.03-.01-.07.02-.09.06-.04.12-.07.17-.12.11-.1.17-.22.2-.37.02-.12-.07-.19-.13-.28-.03-.04-.06-.07-.08-.12-.11-.22-.17-.44.03-.65.14-.15.18-.33.11-.53-.07-.17-.01-.32.07-.48-.24-.03-.42-.13-.6-.25-.16-.11-.35-.18-.53-.28-.08-.04-.22.01-.25-.1-.02-.08,0-.19.02-.28.02-.12.05-.23.09-.34.06-.17.08-.35.06-.52-.02-.14-.05-.28-.07-.42-.01-.1-.07-.15-.16-.15-.17,0-.28-.11-.38-.22-.07-.08-.13-.17-.16-.27-.03-.12-.1-.22-.19-.3-.22-.2-.34-.44-.34-.74,0-.17-.09-.21-.27-.17-.02,0-.05,0-.07.02-.26.2-.55.14-.84.09-.01,0-.02,0-.04,0-.27,0-.52.06-.67.31-.02.04-.05.08-.11.07-.18-.23-.17-.24-.33-.29-.11-.03-.19-.13-.28-.14-.11,0-.21.07-.32.11-.08.03-.16.05-.24.08-.26.09-.5.21-.67.44-.06.08-.11.08-.18.03-.09-.06-.17-.13-.2-.24-.04-.11-.12-.18-.22-.22-.21-.08-.39-.22-.55-.38-.09-.09-.16-.08-.25,0-.09.09-.18.18-.31.23-.25.09-.47.24-.64.44-.22.25-.49.44-.73.67-.12.12-.17.12-.31.03-.12-.08-.24-.15-.35-.24-.12-.1-.25-.18-.4-.22-.15-.04-.29-.11-.41-.2-.05-.03-.1-.06-.15-.09-.11-.05-.17-.04-.23.07-.15.28-.38.52-.49.82-.02.04-.04.09-.07.12-.22.24-.38.51-.48.82-.03.08-.09.1-.17.09-.24-.04-.49-.1-.72-.18-.08-.03-.14,0-.17.08-.15.39-.43.7-.57,1.12-.27-.15-.53-.25-.67-.52-.05-.09-.13-.17-.23-.22-.18-.11-.37-.21-.55-.31-.07-.04-.13-.03-.2.02-.27.23-.53.46-.71.78-.13.23-.26.45-.15.73,0,.02,0,.05-.01.07-.1.04-.17-.05-.26-.07-.06-.01-.12,0-.15.07-.09.18-.13.38-.16.58-.01.07-.01.14-.03.21-.02.07-.09.11-.17.08-.08-.03-.15-.07-.22-.11-.16-.08-.34-.09-.52-.07-.08.01-.14.05-.12.14.02.16,0,.31-.05.45-.07.2-.09.41-.13.62-.03.17-.06.35-.08.52-.02.13-.09.24-.16.35-.04.05-.09.07-.16.05-.26-.09-.52-.16-.72-.37-.09-.09-.19-.17-.32-.23-.33-.14-.65-.28-.98-.42-.11-.05-.22-.09-.34-.09-.39.01-.38-.02-.42.35,0,.04,0,.07-.02.1-.09.3-.08.61-.06.91,0,.13.05.26.01.38-.16.07-.32-.04-.48.03.01.35.23.63.21.98-.08-.02-.13-.02-.19-.04-.06-.02-.11-.04-.16-.07-.36-.22-.37-.11-.4.25-.01.19-.04.38.04.56.16.34.1.72.22,1.07.01.03-.03.07-.07.06-.08-.02-.15-.06-.23-.08-.11-.03-.22-.07-.35-.06-.09.01-.15.07-.13.17.05.28.11.56.26.8.09.14.13.3.17.46.15.75.19,1.5.2,2.26,0,.15-.02.31-.04.46-.01.08-.05.16-.08.23-.02.05-.07.08-.11.05-.27-.18-.48-.42-.55-.75-.04-.21-.08-.42-.12-.63-.04-.23-.06-.47-.03-.7.01-.09.01-.19.01-.28,0-.07-.04-.1-.11-.1-.07,0-.1-.04-.13-.1-.04-.1-.07-.2-.12-.29-.07-.14-.08-.27-.03-.41.03-.1.06-.2.09-.31.02-.07-.02-.1-.11-.09-.19.02-.2.02-.25-.13-.09-.27-.14-.55-.19-.83-.04-.25-.12-.48-.25-.69-.04-.06-.09-.09-.18-.06-.31.09-.54.28-.74.53-.16.19-.18.21-.39.02-.09-.08-.15-.19-.2-.29-.07-.15-.13-.3-.2-.45-.05-.1-.08-.22-.18-.29-.19.05-.31.22-.48.26-.21-.11-.22-.34-.31-.5-.1,0-.09.11-.18.11-.09-.17-.13-.37-.16-.57-.06-.35-.29-.58-.57-.79-.12.13-.25.23-.39.32-.18.12-.35.24-.39.48,0,.02-.02.04-.04.06-.05.07-.12.08-.17,0-.15-.2-.32-.38-.55-.49-.2-.11-.38-.23-.53-.41-.11-.13-.24-.23-.4-.29-.27-.11-.37-.08-.55.15-.06.08-.1.16-.13.25-.05.14-.07.13-.21.1-.14-.04-.27-.08-.39-.17-.25-.2-.54-.28-.86-.28-.29,0-.56-.1-.82-.2-.15-.06-.3-.14-.45-.21-.15-.08-.3-.13-.47-.13-.19,0-.37-.02-.55-.11-.1-.05-.23-.08-.35-.04-.23.07-.46.11-.7.08-.06,0-.11.07-.08.12.05.09.09.19.11.3.01.12.04.23.09.34.2.41.24.86.31,1.3.02.11-.02.14-.14.15-.01,0-.02,0-.04,0-.17,0-.17,0-.1.13.06.1.12.2.1.33-.05.26-.01.52,0,.78,0,.08.04.16-.01.25-.04,0-.09.02-.14.01-.08-.01-.16-.04-.24-.06-.2-.05-.37.04-.53.15-.13.1-.05.24-.04.36,0,.01,0,.02,0,.04-.03.26.09.45.29.61.1.08.2.17.26.29.06.1.05.14-.04.21-.11.08-.26.11-.34.23.05.11.13.18.2.26.12.13.24.26.35.4.06.08.03.16-.07.19-.07.02-.14.03-.21,0-.04-.02-.09-.03-.13-.05-.27-.11-.53-.1-.78.05-.02.01-.04.02-.07.03-.17.08-.18.12-.08.29.19.33.38.65.65.92.16.16.3.34.4.54.17.34.08.5-.31.51-.12,0-.24-.02-.35-.03-.03,0-.07-.01-.1-.02-.05,0-.09.05-.07.1.08.17.17.34.26.5.04.07.11.14.04.22-.06.06-.13.03-.2.01-.08-.02-.16-.04-.23-.08-.37-.19-.73-.38-1.02-.69-.04-.05-.11-.03-.13.04-.01.05-.03.09-.02.14.08.38.07.78.25,1.14.08.15.11.31.17.47.06.16.07.32.08.49,0,.08-.02.13-.09.18-.08.05-.18.07-.21.18.04.13.2.17.23.31.04.18.17.31.31.42.07.06.15.12.18.22.02.07,0,.15-.06.18-.08.03-.15.06-.23.08-.12.04-.16.11-.08.2.17.23.25.51.38.76.05.11.08.22.09.34.02.22-.03.3-.26.34-.13.03-.26.05-.38.08-.18.04-.19.07-.13.24.06.16.05.18-.11.21-.16.03-.33.04-.49.09-.32.09-.63.19-.95.29-.1.03-.21.05-.26.14,0,.09.05.15.09.2.13.15.27.29.41.45.19.22.42.38.69.48.13.05.23.13.32.21.06.05.05.1,0,.14-.12.07-.25.13-.37.21-.1.07-.09.17.02.22.06.03.13.05.2.06.2.04.38.13.56.21.09.04.17.09.23.16.03.04.04.09-.01.12s-.11.05-.16.07c-.21.07-.41.17-.61.31.02.05.04.09.06.13.15.26.4.38.66.45.37.1.72.29,1.11.3.01.09-.03.13-.09.16-.15.09-.31.17-.47.25-.15.07-.29.17-.39.3-.03.05-.1.08-.08.15.02.07.09.06.15.07.13,0,.26.01.39.02.1,0,.25-.05.3.05.06.13-.12.18-.17.27-.02.03-.04.05-.01.1.24.11.5.11.75.15.06,0,.13.02.13.09,0,.03-.07.06-.11.08-.09.02-.18.04-.28.05-.1.02-.21.04-.31.07-.09.02-.11.09-.05.16.14.19.31.35.5.5.03.02.06.05.03.09-.02.03-.05.05-.08.05-.28.03-.56.08-.83.16-.71.2-1.41.38-2.15.46-.2.02-.39.08-.57.19-.12.07-.12.17-.01.25.2.15.4.3.6.44.29.21.58.41.87.61.07.05.07.1.03.18-.09.15-.08.15.01.27.1.13.26.19.37.3,0,.08-.05.12-.09.16-.07.08-.14.16-.22.23-.45.35-.37.31.08.58.12.07.26.12.4.13.31.02.56.16.76.39.1.11.11.15.01.27-.16.22-.32.44-.52.63-.07.06-.13.14-.18.22-.04.05-.03.11.04.14.25.13.51.25.8.28.14.01.28.05.42.07.08.01.16.04.23.09.06.05.09.12.05.19-.05.08-.11.15-.17.23-.03.05-.1.08-.08.15.02.08.1.05.15.05.18-.01.32.08.44.19.09.08.08.2-.01.27-.07.06-.17.09-.23.16-.26.32-.5.66-.75.99-.06.08-.03.16.07.19.23.07.47.06.7.04.21-.02.42-.05.63-.07.09,0,.14.05.12.13-.02.09-.06.18-.08.27-.04.12-.12.23-.1.37.07,0,.13,0,.18,0,.15.01.31.02.46.04.1.01.14.08.11.18-.02.06-.03.11-.06.17-.07.14-.13.28-.21.41-.22.4-.29.85-.33,1.29,0,.07,0,.14.01.21.01.1.08.15.17.11.18-.07.35-.14.51-.25.06-.04.12-.08.19-.1.19-.07.35.06.33.27,0,.04-.05.08,0,.12.08,0,.16-.02.24-.02.07,0,.14,0,.21,0,.1.01.15.06.15.16,0,.13-.01.25-.02.38.35.02.52.01.77-.11.23-.11.48-.12.73-.13.09,0,.13.06.09.14-.12.23-.24.46-.37.68-.12.19-.13.18.07.34.06.05.14.09.22.12.32.12.32.13.27.46,0,.05-.01.09-.03.14-.15.4-.19.83-.3,1.24-.03.14-.05.28-.06.42-.01.18,0,.36.05.53.06.18.13.23.31.22.27,0,.51-.1.74-.22.33-.17.67-.3,1.01-.44.22-.09.3-.04.31.21,0,.06,0,.12,0,.18.01.18.04.35.11.52.04.08.09.1.17.07.31-.14.62-.29.84-.57.08-.1.18-.19.27-.28.04-.04.09-.07.14-.1.05-.03.14,0,.15.05.02.08.03.16.03.24,0,.17.05.33.14.47.1.17.22.33.34.51.32-.18.58-.39.73-.74.13-.3.29-.59.53-.83.06-.06.12-.11.19-.15.05-.03.12-.02.15.05.04.09.07.18.11.26.03.08.1.09.18.04.08-.06.14-.12.18-.21.03-.09.07-.18.09-.27.06-.29.25-.47.49-.61.12-.07.19-.05.27.07.1.15.16.32.2.49.06.23.17.44.26.66.02.05.04.12.11.11.09-.03.12-.11.17-.18.27-.41.5-.83.51-1.34,0-.17.05-.33.11-.48.06-.17.11-.34.17-.5.03-.08.04-.19.13-.19.11,0,.1.11.12.19,0,.01,0,.02,0,.03.01.03.01.08.06.07.03,0,.08-.03.08-.05.1-.28.34-.45.54-.64.25-.24.5-.47.74-.71.37-.36.75-.72,1.12-1.09.03-.03.08-.08.12-.04.03.02.03.09.02.13-.02.1-.04.21-.07.31-.11.41-.22.82-.34,1.23-.58,1.92-1.16,3.84-1.83,5.74-.32.9-.61,1.81-.86,2.74-.09.33-.18.66-.23,1-.17,1.31.13,2.51.8,3.63.28.47.66.86,1.02,1.26.22.25.47.47.61.77.04.09.11.15.21.18.35.1.64.31.93.51.57.4,1.18.74,1.8,1.06,1.28.64,2.56,1.28,3.82,1.94,1.65.86,3.29,1.76,4.95,2.62.58.3,1.04.71,1.45,1.22,1.73,2.16,3.13,4.52,4.37,6.98.57,1.12.99,2.3,1.16,3.55.04.32.07.65.1.97.19.29.36.58.49.88,0-.17.03-.35.03-.52,0-.82-.11-1.62-.35-2.41-.31-1.01-.72-1.97-1.15-2.93ZM416.29,82.89c-.11.14-.23.27-.36.39-.08.08-.15.18-.27.21-.12-.09-.06-.24-.09-.36-.01-.06-.01-.12-.03-.17-.13-.47-.06-.94,0-1.41.03-.23.11-.44.25-.62.14-.2.29-.4.46-.58.31-.34.64-.66,1.01-.93.3-.22.63-.38.96-.53.08,0,.1.02.11.05.03.07.01.14,0,.21-.06.29-.17.57-.29.83-.46,1.04-1.07,2-1.75,2.9ZM416.12,98.89c-.18-.05-.33-.13-.45-.27-.61-.71-1.09-1.48-1.28-2.41-.08-.38-.06-.75-.03-1.13.04-.7.21-1.38.43-2.04.44-1.33.89-2.66,1.33-4,.65-1.95,1.23-3.92,1.82-5.89.14-.46.29-.92.42-1.39.1-.33.25-.64.39-.95.22-.47.44-.94.66-1.41.12-.25.23-.49.4-.71.03-.04.06-.07.1-.11.2.06.33.2.4.38.3.68.59,1.37.6,2.13,0,.77-.12,1.5-.53,2.17-.28.46-.57.92-.86,1.39-.06.09-.13.17-.19.25-.04.05-.08.09-.07.16,0,.03.02.07.04.09,0,0,.05,0,.06,0,.07-.04.13-.1.2-.14.04-.02.1.02.1.07,0,.05,0,.1-.02.14-.1.33-.15.67-.31.97-.04.07-.07.15-.11.22-.07.15-.08.29.05.42.09.09.11.2.04.32-.07.11-.01.24.02.34.05.15.07.29.06.45-.03.41.1.79.32,1.14.13-.01.18-.12.21-.21.07-.2.19-.34.36-.47.11-.09.19-.21.28-.31.01-.01.04-.02.06-.02.02,0,.04.03.04.05,0,.08,0,.16-.02.25-.02.14-.03.28,0,.42.01.07,0,.17.06.19.1.04.13-.07.18-.13.02-.02.03-.03.05-.05.06-.04.15-.01.18.05.03.07.03.14.02.21-.07.33.03.66.08.98.02.17.14.32.22.48.03.07.11.07.18.02.09-.08.15-.18.21-.28.08-.13.16-.26.25-.39.03-.04.09-.03.12.02.02.04.05.08.06.13.06.29.21.55.37.8.06.09.1.18.16.28.02.04.05.09.11.08.06,0,.08-.05.08-.1.02-.14.09-.24.18-.34.03-.04.07-.06.12-.04.06.02.11.05.1.12-.02.1-.04.21-.07.31-.23.67-.49,1.33-.8,1.97-.07.15-.15.3-.24.44-.5.8-1.03,1.59-1.63,2.32-.65.8-1.41,1.5-2.18,2.17-.37.32-.8.55-1.23.76-.36.17-.72.21-1.1.09Z"/>
  <path class="st14" d="M412.7,112.03c12.76,0,24.28,5.17,32.65,13.54,8.34,8.34,13.51,19.89,13.51,32.62s-5.17,24.28-13.51,32.62c-8.37,8.37-19.89,13.54-32.65,13.54s-24.28-5.17-32.62-13.54c-8.34-8.34-13.51-19.89-13.51-32.62s5.16-24.28,13.51-32.62c8.34-8.37,19.89-13.54,32.62-13.54h0ZM442.38,128.54c-7.6-7.6-18.08-12.32-29.69-12.32s-22.06,4.72-29.66,12.32c-7.6,7.57-12.29,18.08-12.29,29.66s4.69,22.09,12.29,29.69c7.6,7.57,18.08,12.29,29.66,12.29s22.09-4.72,29.69-12.29c7.6-7.6,12.29-18.11,12.29-29.69s-4.69-22.09-12.29-29.66h0Z"/>
  <path class="st6" d="M412.51,122.13c19.58,0,35.45,15.86,35.45,35.42s-15.86,35.42-35.45,35.42-35.42-15.86-35.42-35.42,15.86-35.42,35.42-35.42h0ZM437.86,142.65c0-1.14.94-2.05,2.08-2.05s2.05.91,2.05,2.05v29.8c0,1.14-.91,2.05-2.05,2.05s-2.08-.91-2.08-2.05v-29.8ZM424.25,129.59c0-1.14.94-2.08,2.08-2.08s2.08.94,2.08,2.08v55.93c0,1.14-.94,2.05-2.08,2.05s-2.08-.91-2.08-2.05v-55.93ZM383.07,142.65c0-1.14.91-2.05,2.05-2.05s2.08.91,2.08,2.05v29.8c0,1.14-.94,2.05-2.08,2.05s-2.05-.91-2.05-2.05v-29.8ZM396.65,129.59c0-1.14.94-2.08,2.08-2.08s2.05.94,2.05,2.08v55.93c0,1.14-.91,2.05-2.05,2.05s-2.08-.91-2.08-2.05v-55.93ZM404.67,179.15,414.28,127.12c0-1.19-.97-2.16-2.16-2.16s-2.13.97-2.13,2.16v34.72h4.29v-34.72ZM416.66,179.99h-2.37v-18.15h-4.29v18.15h-2.37c-.85,0-1.77.43-2.47,1.04-.7.64-1.19,1.49-1.19,2.34v3.62c0,.52.24,1.07.61,1.46.4.4.91.67,1.46.67h12.21c.55,0,1.07-.27,1.43-.67.37-.4.64-.94.64-1.46v-3.62c0-.85-.52-1.71-1.19-2.34-.7-.61-1.64-1.04-2.47-1.04Z"/>
  <path class="st14" d="M412.51,120.05c10.36,0,19.73,4.22,26.52,10.98,6.79,6.79,10.98,16.16,10.98,26.52s-4.18,19.73-10.98,26.52c-6.79,6.79-16.16,10.98-26.52,10.98s-19.73-4.19-26.49-10.98c-6.79-6.79-10.98-16.16-10.98-26.52s4.19-19.73,10.98-26.52c6.76-6.76,16.16-10.98,26.49-10.98h0ZM436.11,133.96c-6.03-6.03-14.37-9.78-23.59-9.78s-17.53,3.75-23.59,9.78c-6.03,6.03-9.75,14.37-9.75,23.59s3.72,17.56,9.75,23.59c6.06,6.03,14.4,9.78,23.59,9.78s17.56-3.75,23.59-9.78c6.03-6.03,9.78-14.37,9.78-23.59s-3.75-17.56-9.78-23.59h0Z"/>
  <path class="st8" d="M588.39,114.06c-1.11-2.47-2.55-4.74-4.22-6.86-.1-.13-.2-.27-.28-.41-.12-.19-.09-.32.07-.47.09-.08.2-.12.31-.16,1.22-.47,2.45-.94,3.65-1.47,1.14-.5,2.28-1.01,3.39-1.6.07-.24.16-.47.26-.7-.74.44-1.49.86-2.27,1.21-1.86.83-3.73,1.61-5.67,2.23-.09.03-.18.04-.27.07-.19.06-.37.03-.55-.06-.13-.06-.26-.12-.38-.19-2.96-1.5-5.89-3.06-8.88-4.52-.51-.25-.99-.55-1.45-.88-.37-.27-.74-.55-1.04-.91-.1-.12-.06-.22.09-.26.05-.01.09-.02.14-.03.46-.09.87-.28,1.27-.53.47-.3.9-.65,1.29-1.05.47-.48.93-.97,1.39-1.46.31-.33.6-.67.84-1.05.4-.63.79-1.26,1.18-1.89.21-.34.39-.7.53-1.08.11-.29.23-.57.35-.85.02-.05.03-.12.1-.14.05,0,.07.05.09.09.09.15.17.31.27.46.13.19.25.19.38,0,.03-.05.05-.11.08-.16.07-.17.15-.35.22-.52.12-.31.25-.61.29-.95.02-.19.15-.32.29-.43.07-.06.15-.04.21.04.05.07.1.14.17.18.2.12.35.28.47.47.06.09.13.17.23.22.05.02.1,0,.11-.04.02-.04.02-.09.03-.14.05-.22,0-.45,0-.67,0-.03,0-.08.04-.08.03,0,.07,0,.1.02.17.1.25.28.31.46.04.11.07.23.15.32.03.03.1.03.12,0,.06-.09.08-.19.09-.3,0-.06.01-.12.08-.14.05-.02.12.03.16.11.02.04.04.09.05.13.05.31.24.56.36.84.02.04.05.08.08.11.06.07.16.05.21-.03.08-.15.09-.32.1-.48.01-.32.1-.63.21-.93.04-.11.12-.13.22-.09.11.05.19.14.27.22.13.12.26.24.39.36.06.05.14.01.15-.07.01-.19.02-.38.04-.57.01-.13.12-.17.24-.09.06.04.08.11.17.11.03-.06.07-.11.1-.17.11.05.17.14.24.22.15.17.32.31.51.44.06.05.15.02.17-.06.02-.07.03-.14.03-.21,0-.21,0-.42-.02-.64,0-.12,0-.24.03-.35.05-.15.11-.19.26-.16.13.03.25.07.38.09.08.02.14-.03.14-.11,0-.07-.01-.14-.01-.21,0-.08.05-.12.13-.13.12-.02.2.04.29.1.15.09.28.22.45.28.23.09.3.05.34-.18,0-.06.01-.12.02-.18.02-.13.04-.26.07-.38.03-.12.08-.15.21-.13.06,0,.12.02.17.04.16.05.31.11.47.16.11.04.15.01.14-.11,0-.05,0-.09,0-.14,0-.27,0-.27.27-.26.02,0,.05,0,.07,0,.51.05,1.01-.02,1.51-.14.09-.02.18-.05.27-.09.05-.02.07-.07.04-.12-.08-.17-.19-.33-.31-.47-.29-.34-.53-.72-.84-1.03.01-.07.05-.09.09-.12.13-.09.16-.17.07-.28-.05-.06-.12-.13-.19-.15-.19-.04-.26-.18-.33-.34-.03-.08-.03-.14.05-.18.11-.06.2-.12.28-.22.17-.23.13-.28-.07-.38-.06-.03-.12-.07-.19-.1-.2-.09-.33-.22-.34-.45,0-.06-.04-.11-.06-.16-.04-.12,0-.17.12-.2.15-.03.3-.02.45.03.09.03.14-.02.1-.11-.12-.29.02-.5.22-.69.15-.14.33-.23.53-.26.27-.04.54-.01.81.03.07.01.14.02.21.02.03,0,.06-.04.06-.08,0-.08-.02-.14-.1-.17-.08-.04-.17-.07-.26-.12-.02-.01-.05-.06-.04-.09,0-.03.03-.06.06-.07.18-.07.36-.11.55-.07.24.05.47.03.69-.07.03-.12-.12-.18-.08-.31.09-.05.2-.04.3-.05.33-.04.66-.07.99-.11.13-.01.26-.04.38-.1.11-.05.14-.17.06-.26-.13-.14-.24-.3-.41-.39-.25-.14-.45-.34-.67-.52-.1-.08-.18-.19-.25-.3-.07-.1-.19-.18-.23-.3.09-.08.16-.13.22-.2.18-.2.41-.3.68-.34.2-.02.4-.06.6-.09.07-.01.14-.03.2-.06.08-.05.09-.13.08-.22,0-.07-.05-.1-.12-.11-.15-.02-.27-.09-.37-.19-.01-.01-.02-.04-.02-.06,0-.04.03-.06.07-.07.17-.04.35-.05.53-.02.25.05.46-.02.66-.18.08-.07.17-.13.25-.19.11-.08.22-.12.36-.13.18-.02.35,0,.53,0,.06,0,.13,0,.16-.04.05-.06-.03-.09-.06-.14-.04-.07-.09-.14-.13-.21-.11-.19-.26-.34-.44-.45-.09-.06-.18-.11-.27-.17-.05-.03-.1-.07-.09-.14.12-.1.27-.12.43-.14.13-.01.26-.05.36-.12.09-.06.08-.19-.01-.23-.05-.02-.11-.04-.17-.06-.03-.01-.07-.02-.1-.03-.03-.02-.06-.04-.07-.07-.02-.05.03-.05.06-.06.24-.11.5-.13.76-.18.26-.05.49-.16.73-.26.05-.02.1-.07.14-.11.07-.07.07-.16,0-.22-.12-.11-.25-.21-.4-.29-.1-.06-.22-.09-.26-.22.04-.06.09-.08.15-.1.19-.06.38-.13.57-.19.23-.07.44-.18.64-.31.04-.03.08-.05.11-.09.07-.07.07-.15,0-.22-.07-.06-.15-.11-.23-.17-.08-.06-.09-.13-.03-.22.11-.19.28-.29.48-.34.33-.08.61-.25.86-.46.16-.13.32-.24.52-.3.11-.03.23-.07.3-.18.13-.17.29-.31.45-.45.08-.07.08-.14-.01-.2-.26-.18-.51-.37-.81-.5-.13-.06-.25-.11-.4-.11-.29,0-.55-.11-.81-.22-.16-.07-.32-.14-.5-.17-.08-.01-.17-.02-.22-.1-.09-.13-.22-.21-.35-.29-.08-.05-.12-.11-.06-.2.09-.15.08-.32.1-.48,0-.08-.04-.13-.11-.16-.04-.02-.09-.03-.14-.03-.63-.08-1.23-.31-1.86-.43-.13-.02-.14-.05-.15-.2,0-.2,0-.4-.01-.6-.01-.18-.05-.21-.22-.19-.05,0-.1,0-.14.02-.44.14-.9.22-1.28.5-.1.08-.21.15-.35.12-.06-.08.05-.19-.07-.27-.15.08-.32.11-.5.09-.13-.02-.26.02-.38.07-.08.03-.15.08-.23.07-.06,0-.09-.04-.09-.09,0-.06.02-.12.04-.17.08-.19.04-.37-.01-.55-.02-.08-.08-.11-.16-.08-.14.04-.26.11-.37.2-.17.13-.34.25-.52.37-.08.05-.16.1-.26.09-.29-.03-.56.06-.84.1-.22.03-.44.1-.63.22-.14.08-.3.15-.44.23-.54.3-1.09.57-1.56.98-.32.28-.69.45-1.1.54-.1.02-.21.06-.31.07-.3.03-.52-.27-.4-.53.17-.36.37-.71.69-.97.2-.16.42-.26.65-.35.51-.21,1.05-.36,1.54-.64.06-.03.13-.05.2-.06.33-.03.64-.15.96-.25.28-.1.49-.27.62-.55.03-.08.08-.15.11-.22.07-.16.19-.27.34-.35.16-.08.32-.14.48-.22.2-.09.4-.2.55-.37-.01-.02-.02-.03-.03-.04-.06-.07-.15-.06-.23-.09-.11-.05-.15-.17-.07-.25.05-.06.13-.1.19-.15.26-.18.5-.39.69-.65-.03-.02-.05-.04-.07-.05-.11-.08-.11-.08-.03-.14.17-.15.34-.29.51-.44.23-.2.46-.41.64-.66.08-.1.14-.22.2-.33.04-.08.02-.17-.06-.22-.44-.28-.88-.56-1.32-.83-.12-.08-.25-.12-.4-.11-.05,0-.08-.06-.05-.1.01-.02.02-.04.04-.06.25-.26.43-.56.61-.87.09-.15.08-.21-.04-.34-.04-.04-.09-.08-.13-.12-.11-.1-.23-.2-.34-.31-.09-.08-.08-.14.01-.19.2-.11.39-.22.57-.36.23-.18.38-.25-.03-.43-.01,0-.02-.01-.03-.02-.05-.03-.05-.1-.02-.15.09-.12.22-.18.35-.23.24-.1.45-.26.65-.43.17-.15.17-.22.04-.39-.1-.12-.2-.23-.34-.31-.11-.07-.23-.13-.32-.22-.23-.22-.49-.36-.79-.45-.22-.07-.21-.13-.17-.31.02-.09.07-.17.13-.25.1-.14.22-.25.34-.36.17-.15.35-.28.48-.47-.1-.14-.24-.2-.37-.28-.33-.22-.35-.36-.11-.66.2-.24.36-.49.49-.77.06-.13.13-.26.21-.37.16-.22.08-.28-.08-.41-.2-.15-.42-.28-.65-.35-.32-.1-.44-.38-.62-.59-.02-.03-.01-.07.02-.09.06-.04.12-.07.17-.12.11-.1.17-.22.2-.37.02-.12-.07-.19-.13-.28-.03-.04-.06-.07-.08-.12-.11-.22-.17-.44.03-.65.14-.15.18-.33.11-.53-.07-.17-.01-.32.07-.48-.24-.03-.42-.13-.6-.25-.16-.11-.35-.18-.53-.28-.08-.04-.22.01-.25-.1-.02-.08,0-.19.02-.28.02-.12.05-.23.09-.34.06-.17.08-.35.06-.52-.02-.14-.05-.28-.07-.42-.01-.1-.07-.15-.16-.15-.17,0-.28-.11-.38-.22-.07-.08-.13-.17-.16-.27-.03-.12-.1-.22-.19-.3-.22-.2-.34-.44-.34-.74,0-.17-.09-.21-.27-.17-.02,0-.05,0-.07.02-.26.2-.55.14-.84.09-.01,0-.02,0-.04,0-.27,0-.52.06-.67.31-.02.04-.05.08-.11.07-.18-.23-.17-.24-.33-.29-.11-.03-.19-.13-.28-.14-.11,0-.21.07-.32.11-.08.03-.16.05-.24.08-.26.09-.5.21-.67.44-.06.08-.11.08-.18.03-.09-.06-.17-.13-.2-.24-.04-.11-.12-.18-.22-.22-.21-.08-.39-.22-.55-.38-.09-.09-.16-.08-.25,0-.09.09-.18.18-.31.23-.25.09-.47.24-.64.44-.22.25-.49.44-.73.67-.12.12-.17.12-.31.03-.12-.08-.24-.15-.35-.24-.12-.1-.25-.18-.4-.22-.15-.04-.29-.11-.41-.2-.05-.03-.1-.06-.15-.09-.11-.05-.17-.04-.23.07-.15.28-.38.52-.49.82-.02.04-.04.09-.07.12-.22.24-.38.51-.48.82-.03.08-.09.1-.17.09-.24-.04-.49-.1-.72-.18-.08-.03-.14,0-.17.08-.15.39-.43.7-.57,1.12-.27-.15-.53-.25-.67-.52-.05-.09-.13-.17-.23-.22-.18-.11-.37-.21-.55-.31-.07-.04-.13-.03-.2.02-.27.23-.53.46-.71.78-.13.23-.26.45-.15.73,0,.02,0,.05-.01.07-.1.04-.17-.05-.26-.07-.06-.01-.12,0-.15.07-.09.18-.13.38-.16.58-.01.07-.01.14-.03.21-.02.07-.09.11-.17.08-.08-.03-.15-.07-.22-.11-.16-.08-.34-.09-.52-.07-.08.01-.14.05-.12.14.02.16,0,.31-.05.45-.07.2-.09.41-.13.62-.03.17-.06.35-.08.52-.02.13-.09.24-.16.35-.04.05-.09.07-.16.05-.26-.09-.52-.16-.72-.37-.09-.09-.19-.17-.32-.23-.33-.14-.65-.28-.98-.42-.11-.05-.22-.09-.34-.09-.39.01-.38-.02-.42.35,0,.04,0,.07-.02.1-.09.3-.08.61-.06.91,0,.13.05.26.01.38-.16.07-.32-.04-.48.03.01.35.23.63.21.98-.08-.02-.13-.02-.19-.04-.06-.02-.11-.04-.16-.07-.36-.22-.37-.11-.4.25-.01.19-.04.38.04.56.16.34.1.72.22,1.07.01.03-.03.07-.07.06-.08-.02-.15-.06-.23-.08-.11-.03-.22-.07-.35-.06-.09.01-.15.07-.13.17.05.28.11.56.26.8.09.14.13.3.17.46.15.75.19,1.5.2,2.26,0,.15-.02.31-.04.46-.01.08-.05.16-.08.23-.02.05-.07.08-.11.05-.27-.18-.48-.42-.55-.75-.04-.21-.08-.42-.12-.63-.04-.23-.06-.47-.03-.7.01-.09.01-.19.01-.28,0-.07-.04-.1-.11-.1-.07,0-.1-.04-.13-.1-.04-.1-.07-.2-.12-.29-.07-.14-.08-.27-.03-.41.03-.1.06-.2.09-.31.02-.07-.02-.1-.11-.09-.19.02-.2.02-.25-.13-.09-.27-.14-.55-.19-.83-.04-.25-.12-.48-.25-.69-.04-.06-.09-.09-.18-.06-.31.09-.54.28-.74.53-.16.19-.18.21-.39.02-.09-.08-.15-.19-.2-.29-.07-.15-.13-.3-.2-.45-.05-.1-.08-.22-.18-.29-.19.05-.31.22-.48.26-.21-.11-.22-.34-.31-.5-.1,0-.09.11-.18.11-.09-.17-.13-.37-.16-.57-.06-.35-.29-.58-.57-.79-.12.13-.25.23-.39.32-.18.12-.35.24-.39.48,0,.02-.02.04-.04.06-.05.07-.12.08-.17,0-.15-.2-.32-.38-.55-.49-.2-.11-.38-.23-.53-.41-.11-.13-.24-.23-.4-.29-.27-.11-.37-.08-.55.15-.06.08-.1.16-.13.25-.05.14-.07.13-.21.1-.14-.04-.27-.08-.39-.17-.25-.2-.54-.28-.86-.28-.29,0-.56-.1-.82-.2-.15-.06-.3-.14-.45-.21-.15-.08-.3-.13-.47-.13-.19,0-.37-.02-.55-.11-.1-.05-.23-.08-.35-.04-.23.07-.46.11-.7.08-.06,0-.11.07-.08.12.05.09.09.19.11.3.01.12.04.23.09.34.2.41.24.86.31,1.3.02.11-.02.14-.14.15-.01,0-.02,0-.04,0-.17,0-.17,0-.1.13.06.1.12.2.1.33-.05.26-.01.52,0,.78,0,.08.04.16-.01.25-.04,0-.09.02-.14.01-.08-.01-.16-.04-.24-.06-.2-.05-.37.04-.53.15-.13.1-.05.24-.04.36,0,.01,0,.02,0,.04-.03.26.09.45.29.61.1.08.2.17.26.29.06.1.05.14-.04.21-.11.08-.26.11-.34.23.05.11.13.18.2.26.12.13.24.26.35.4.06.08.03.16-.07.19-.07.02-.14.03-.21,0-.04-.02-.09-.03-.13-.05-.27-.11-.53-.1-.78.05-.02.01-.04.02-.07.03-.17.08-.18.12-.08.29.19.33.38.65.65.92.16.16.3.34.4.54.17.34.08.5-.31.51-.12,0-.24-.02-.35-.03-.03,0-.07-.01-.1-.02-.05,0-.09.05-.07.1.08.17.17.34.26.5.04.07.11.14.04.22-.06.06-.13.03-.2.01-.08-.02-.16-.04-.23-.08-.37-.19-.73-.38-1.02-.69-.04-.05-.11-.03-.13.04-.01.05-.03.09-.02.14.08.38.07.78.25,1.14.08.15.11.31.17.47.06.16.07.32.08.49,0,.08-.02.13-.09.18-.08.05-.18.07-.21.18.04.13.2.17.23.31.04.18.17.31.31.42.07.06.15.12.18.22.02.07,0,.15-.06.18-.08.03-.15.06-.23.08-.12.04-.16.11-.08.2.17.23.25.51.38.76.05.11.08.22.09.34.02.22-.03.3-.26.34-.13.03-.26.05-.38.08-.18.04-.19.07-.13.24.06.16.05.18-.11.21-.16.03-.33.04-.49.09-.32.09-.63.19-.95.29-.1.03-.21.05-.26.14,0,.09.05.15.09.2.13.15.27.29.41.45.19.22.42.38.69.48.13.05.23.13.32.21.06.05.05.1,0,.14-.12.07-.25.13-.37.21-.1.07-.09.17.02.22.06.03.13.05.2.06.2.04.38.13.56.21.09.04.17.09.23.16.03.04.04.09-.01.12s-.11.05-.16.07c-.21.07-.41.17-.61.31.02.05.04.09.06.13.15.26.4.38.66.45.37.1.72.29,1.11.3.01.09-.03.13-.09.16-.15.09-.31.17-.47.25-.15.07-.29.17-.39.3-.03.05-.1.08-.08.15.02.07.09.06.15.07.13,0,.26.01.39.02.1,0,.25-.05.3.05.06.13-.12.18-.17.27-.02.03-.04.05-.01.1.24.11.5.11.75.15.06,0,.13.02.13.09,0,.03-.07.06-.11.08-.09.02-.18.04-.28.05-.1.02-.21.04-.31.07-.09.02-.11.09-.05.16.14.19.31.35.5.5.03.02.06.05.03.09-.02.03-.05.05-.08.05-.28.03-.56.08-.83.16-.71.2-1.41.38-2.15.46-.2.02-.39.08-.57.19-.12.07-.12.17-.01.25.2.15.4.3.6.44.29.21.58.41.87.61.07.05.07.1.03.18-.09.15-.08.15.01.27.1.13.26.19.37.3,0,.08-.05.12-.09.16-.07.08-.14.16-.22.23-.45.35-.37.31.08.58.12.07.26.12.4.13.31.02.56.16.76.39.1.11.11.15.01.27-.16.22-.32.44-.52.63-.07.06-.13.14-.18.22-.04.05-.03.11.04.14.25.13.51.25.8.28.14.01.28.05.42.07.08.01.16.04.23.09.06.05.09.12.05.19-.05.08-.11.15-.17.23-.03.05-.1.08-.08.15.02.08.1.05.15.05.18-.01.32.08.44.19.09.08.08.2-.01.27-.07.06-.17.09-.23.16-.26.32-.5.66-.75.99-.06.08-.03.16.07.19.23.07.47.06.7.04.21-.02.42-.05.63-.07.09,0,.14.05.12.13-.02.09-.06.18-.08.27-.04.12-.12.23-.1.37.07,0,.13,0,.18,0,.15.01.31.02.46.04.1.01.14.08.11.18-.02.06-.03.11-.06.17-.07.14-.13.28-.21.41-.22.4-.29.85-.33,1.29,0,.07,0,.14.01.21.01.1.08.15.17.11.18-.07.35-.14.51-.25.06-.04.12-.08.19-.1.19-.07.35.06.33.27,0,.04-.05.08,0,.12.08,0,.16-.02.24-.02.07,0,.14,0,.21,0,.1.01.15.06.15.16,0,.13-.01.25-.02.38.35.02.52.01.77-.11.23-.11.48-.12.73-.13.09,0,.13.06.09.14-.12.23-.24.46-.37.68-.12.19-.13.18.07.34.06.05.14.09.22.12.32.12.32.13.27.46,0,.05-.01.09-.03.14-.15.4-.19.83-.3,1.24-.03.14-.05.28-.06.42-.01.18,0,.36.05.53.06.18.13.23.31.22.27,0,.51-.1.74-.22.33-.17.67-.3,1.01-.44.22-.09.3-.04.31.21,0,.06,0,.12,0,.18.01.18.04.35.11.52.04.08.09.1.17.07.31-.14.62-.29.84-.57.08-.1.18-.19.27-.28.04-.04.09-.07.14-.1.05-.03.14,0,.15.05.02.08.03.16.03.24,0,.17.05.33.14.47.1.17.22.33.34.51.32-.18.58-.39.73-.74.13-.3.29-.59.53-.83.06-.06.12-.11.19-.15.05-.03.12-.02.15.05.04.09.07.18.11.26.03.08.1.09.18.04.08-.06.14-.12.18-.21.03-.09.07-.18.09-.27.06-.29.25-.47.49-.61.12-.07.19-.05.27.07.1.15.16.32.2.49.06.23.17.44.26.66.02.05.04.12.11.11.09-.03.12-.11.17-.18.27-.41.5-.83.51-1.34,0-.17.05-.33.11-.48.06-.17.11-.34.17-.5.03-.08.04-.19.13-.19.11,0,.1.11.12.19,0,.01,0,.02,0,.03.01.03.01.08.06.07.03,0,.08-.03.08-.05.1-.28.34-.45.54-.64.25-.24.5-.47.74-.71.37-.36.75-.72,1.12-1.09.03-.03.08-.08.12-.04.03.02.03.09.02.13-.02.1-.04.21-.07.31-.11.41-.22.82-.34,1.23-.58,1.92-1.16,3.84-1.83,5.74-.32.9-.61,1.81-.86,2.74-.09.33-.18.66-.23,1-.17,1.31.13,2.51.8,3.63.28.47.66.86,1.02,1.26.22.25.47.47.61.77.04.09.11.15.21.18.35.1.64.31.93.51.57.4,1.18.74,1.8,1.06,1.28.64,2.56,1.28,3.82,1.94,1.65.86,3.29,1.76,4.95,2.62.58.3,1.04.71,1.45,1.22,1.73,2.16,3.13,4.52,4.37,6.98.57,1.12.99,2.3,1.16,3.55.04.32.07.65.1.97.19.29.36.58.49.88,0-.17.03-.35.03-.52,0-.82-.11-1.62-.35-2.41-.31-1.01-.72-1.97-1.15-2.93ZM570.67,82.53c-.11.14-.23.27-.36.39-.08.08-.15.18-.27.21-.12-.09-.06-.24-.09-.36-.01-.06-.01-.12-.03-.17-.13-.47-.06-.94,0-1.41.03-.23.11-.44.25-.62.14-.2.29-.4.46-.58.31-.34.64-.66,1.01-.93.3-.22.63-.38.96-.53.08,0,.1.02.11.05.03.07.01.14,0,.21-.06.29-.17.57-.29.83-.46,1.04-1.07,2-1.75,2.9ZM570.5,98.52c-.18-.05-.33-.13-.45-.27-.61-.71-1.09-1.48-1.28-2.41-.08-.38-.06-.75-.03-1.13.04-.7.21-1.38.43-2.04.44-1.33.89-2.66,1.33-4,.65-1.95,1.23-3.92,1.82-5.89.14-.46.29-.92.42-1.39.1-.33.25-.64.39-.95.22-.47.44-.94.66-1.41.12-.25.23-.49.4-.71.03-.04.06-.07.1-.11.2.06.33.2.4.38.3.68.59,1.37.6,2.13,0,.77-.12,1.5-.53,2.17-.28.46-.57.92-.86,1.39-.06.09-.13.17-.19.25-.04.05-.08.09-.07.16,0,.03.02.07.04.09,0,0,.05,0,.06,0,.07-.04.13-.1.2-.14.04-.02.1.02.1.07,0,.05,0,.1-.02.14-.1.33-.15.67-.31.97-.04.07-.07.15-.11.22-.07.15-.08.29.05.42.09.09.11.2.04.32-.07.11-.01.24.02.34.05.15.07.29.06.45-.03.41.1.79.32,1.14.13-.01.18-.12.21-.21.07-.2.19-.34.36-.47.11-.09.19-.21.28-.31.01-.01.04-.02.06-.02.02,0,.04.03.04.05,0,.08,0,.16-.02.25-.02.14-.03.28,0,.42.01.07,0,.17.06.19.1.04.13-.07.18-.13.02-.02.03-.03.05-.05.06-.04.15-.01.18.05.03.07.03.14.02.21-.07.33.03.66.08.98.02.17.14.32.22.48.03.07.11.07.18.02.09-.08.15-.18.21-.28.08-.13.16-.26.25-.39.03-.04.09-.03.12.02.02.04.05.08.06.13.06.29.21.55.37.8.06.09.1.18.16.28.02.04.05.09.11.08.06,0,.08-.05.08-.1.02-.14.09-.24.18-.34.03-.04.07-.06.12-.04.06.02.11.05.1.12-.02.1-.04.21-.07.31-.23.67-.49,1.33-.8,1.97-.07.15-.15.3-.24.44-.5.8-1.03,1.59-1.63,2.32-.65.8-1.41,1.5-2.18,2.17-.37.32-.8.55-1.23.76-.36.17-.72.21-1.1.09Z"/>
  <path class="st7" d="M567.08,111.67c12.76,0,24.28,5.17,32.65,13.54,8.34,8.34,13.51,19.89,13.51,32.62s-5.17,24.28-13.51,32.62c-8.37,8.37-19.89,13.54-32.65,13.54s-24.28-5.17-32.62-13.54c-8.34-8.34-13.51-19.89-13.51-32.62s5.16-24.28,13.51-32.62c8.34-8.37,19.89-13.54,32.62-13.54h0ZM596.77,128.17c-7.6-7.6-18.08-12.32-29.69-12.32s-22.06,4.72-29.66,12.32c-7.6,7.57-12.29,18.08-12.29,29.66s4.69,22.09,12.29,29.69c7.6,7.57,18.08,12.29,29.66,12.29s22.09-4.72,29.69-12.29c7.6-7.6,12.29-18.11,12.29-29.69s-4.69-22.09-12.29-29.66h0Z"/>
  <path class="st5" d="M566.9,121.76c19.58,0,35.45,15.86,35.45,35.42s-15.86,35.42-35.45,35.42-35.42-15.86-35.42-35.42,15.86-35.42,35.42-35.42h0ZM592.25,142.28c0-1.14.94-2.05,2.08-2.05s2.05.91,2.05,2.05v29.8c0,1.14-.91,2.05-2.05,2.05s-2.08-.91-2.08-2.05v-29.8ZM578.64,129.23c0-1.14.94-2.08,2.08-2.08s2.08.94,2.08,2.08v55.93c0,1.14-.94,2.05-2.08,2.05s-2.08-.91-2.08-2.05v-55.93ZM537.45,142.28c0-1.14.91-2.05,2.05-2.05s2.08.91,2.08,2.05v29.8c0,1.14-.94,2.05-2.08,2.05s-2.05-.91-2.05-2.05v-29.8ZM551.03,129.23c0-1.14.94-2.08,2.08-2.08s2.05.94,2.05,2.08v55.93c0,1.14-.91,2.05-2.05,2.05s-2.08-.91-2.08-2.05v-55.93ZM559.05,178.78,568.67,126.75c0-1.19-.97-2.16-2.16-2.16s-2.13.97-2.13,2.16v34.72h4.29v-34.72ZM571.04,179.62h-2.37v-18.15h-4.29v18.15h-2.37c-.85,0-1.77.43-2.47,1.04-.7.64-1.19,1.49-1.19,2.34v3.62c0,.52.24,1.07.61,1.46.4.4.91.67,1.46.67h12.21c.55,0,1.07-.27,1.43-.67.37-.4.64-.94.64-1.46v-3.62c0-.85-.52-1.71-1.19-2.34-.7-.61-1.64-1.04-2.47-1.04Z"/>
  <path class="st7" d="M566.9,119.69c10.36,0,19.73,4.22,26.52,10.98,6.79,6.79,10.98,16.16,10.98,26.52s-4.18,19.73-10.98,26.52c-6.79,6.79-16.16,10.98-26.52,10.98s-19.73-4.19-26.49-10.98c-6.79-6.79-10.98-16.16-10.98-26.52s4.19-19.73,10.98-26.52c6.76-6.76,16.16-10.98,26.49-10.98h0ZM590.49,133.59c-6.03-6.03-14.37-9.78-23.59-9.78s-17.53,3.75-23.59,9.78c-6.03,6.03-9.75,14.37-9.75,23.59s3.72,17.56,9.75,23.59c6.06,6.03,14.4,9.78,23.59,9.78s17.56-3.75,23.59-9.78c6.03-6.03,9.78-14.37,9.78-23.59s-3.75-17.56-9.78-23.59h0Z"/>
  <path class="st9" d="M747.35,112.25c-1.11-2.47-2.55-4.74-4.22-6.86-.1-.13-.2-.27-.28-.41-.12-.19-.09-.32.07-.47.09-.08.2-.12.31-.16,1.22-.47,2.45-.94,3.65-1.47,1.14-.5,2.28-1.01,3.39-1.6.07-.24.16-.47.26-.7-.74.44-1.49.86-2.27,1.21-1.86.83-3.73,1.61-5.67,2.23-.09.03-.18.04-.27.07-.19.06-.37.03-.55-.06-.13-.06-.26-.12-.38-.19-2.96-1.5-5.89-3.06-8.88-4.52-.51-.25-.99-.55-1.45-.88-.37-.27-.74-.55-1.04-.91-.1-.12-.06-.22.09-.26.05-.01.09-.02.14-.03.46-.09.87-.28,1.27-.53.47-.3.9-.65,1.29-1.05.47-.48.93-.97,1.39-1.46.31-.33.6-.67.84-1.05.4-.63.79-1.26,1.18-1.89.21-.34.39-.7.53-1.08.11-.29.23-.57.35-.85.02-.05.03-.12.1-.14.05,0,.07.05.09.09.09.15.17.31.27.46.13.19.25.19.38,0,.03-.05.05-.11.08-.16.07-.17.15-.35.22-.52.12-.31.25-.61.29-.95.02-.19.15-.32.29-.43.07-.06.15-.04.21.04.05.07.1.14.17.18.2.12.35.28.47.47.06.09.13.17.23.22.05.02.1,0,.11-.04.02-.04.02-.09.03-.14.05-.22,0-.45,0-.67,0-.03,0-.08.04-.08.03,0,.07,0,.1.02.17.1.25.28.31.46.04.11.07.23.15.32.03.03.1.03.12,0,.06-.09.08-.19.09-.3,0-.06.01-.12.08-.14.05-.02.12.03.16.11.02.04.04.09.05.13.05.31.24.56.36.84.02.04.05.08.08.11.06.07.16.05.21-.03.08-.15.09-.32.1-.48.01-.32.1-.63.21-.93.04-.11.12-.13.22-.09.11.05.19.14.27.22.13.12.26.24.39.36.06.05.14.01.15-.07.01-.19.02-.38.04-.57.01-.13.12-.17.24-.09.06.04.08.11.17.11.03-.06.07-.11.1-.17.11.05.17.14.24.22.15.17.32.31.51.44.06.05.15.02.17-.06.02-.07.03-.14.03-.21,0-.21,0-.42-.02-.64,0-.12,0-.24.03-.35.05-.15.11-.19.26-.16.13.03.25.07.38.09.08.02.14-.03.14-.11,0-.07-.01-.14-.01-.21,0-.08.05-.12.13-.13.12-.02.2.04.29.1.15.09.28.22.45.28.23.09.3.05.34-.18,0-.06.01-.12.02-.18.02-.13.04-.26.07-.38.03-.12.08-.15.21-.13.06,0,.12.02.17.04.16.05.31.11.47.16.11.04.15.01.14-.11,0-.05,0-.09,0-.14,0-.27,0-.27.27-.26.02,0,.05,0,.07,0,.51.05,1.01-.02,1.51-.14.09-.02.18-.05.27-.09.05-.02.07-.07.04-.12-.08-.17-.19-.33-.31-.47-.29-.34-.53-.72-.84-1.03.01-.07.05-.09.09-.12.13-.09.16-.17.07-.28-.05-.06-.12-.13-.19-.15-.19-.04-.26-.18-.33-.34-.03-.08-.03-.14.05-.18.11-.06.2-.12.28-.22.17-.23.13-.28-.07-.38-.06-.03-.12-.07-.19-.1-.2-.09-.33-.22-.34-.45,0-.06-.04-.11-.06-.16-.04-.12,0-.17.12-.2.15-.03.3-.02.45.03.09.03.14-.02.1-.11-.12-.29.02-.5.22-.69.15-.14.33-.23.53-.26.27-.04.54-.01.81.03.07.01.14.02.21.02.03,0,.06-.04.06-.08,0-.08-.02-.14-.1-.17-.08-.04-.17-.07-.26-.12-.02-.01-.05-.06-.04-.09,0-.03.03-.06.06-.07.18-.07.36-.11.55-.07.24.05.47.03.69-.07.03-.12-.12-.18-.08-.31.09-.05.2-.04.3-.05.33-.04.66-.07.99-.11.13-.01.26-.04.38-.1.11-.05.14-.17.06-.26-.13-.14-.24-.3-.41-.39-.25-.14-.45-.34-.67-.52-.1-.08-.18-.19-.25-.3-.07-.1-.19-.18-.23-.3.09-.08.16-.13.22-.2.18-.2.41-.3.68-.34.2-.02.4-.06.6-.09.07-.01.14-.03.2-.06.08-.05.09-.13.08-.22,0-.07-.05-.1-.12-.11-.15-.02-.27-.09-.37-.19-.01-.01-.02-.04-.02-.06,0-.04.03-.06.07-.07.17-.04.35-.05.53-.02.25.05.46-.02.66-.18.08-.07.17-.13.25-.19.11-.08.22-.12.36-.13.18-.02.35,0,.53,0,.06,0,.13,0,.16-.04.05-.06-.03-.09-.06-.14-.04-.07-.09-.14-.13-.21-.11-.19-.26-.34-.44-.45-.09-.06-.18-.11-.27-.17-.05-.03-.1-.07-.09-.14.12-.1.27-.12.43-.14.13-.01.26-.05.36-.12.09-.06.08-.19-.01-.23-.05-.02-.11-.04-.17-.06-.03-.01-.07-.02-.1-.03-.03-.02-.06-.04-.07-.07-.02-.05.03-.05.06-.06.24-.11.5-.13.76-.18.26-.05.49-.16.73-.26.05-.02.1-.07.14-.11.07-.07.07-.16,0-.22-.12-.11-.25-.21-.4-.29-.1-.06-.22-.09-.26-.22.04-.06.09-.08.15-.1.19-.06.38-.13.57-.19.23-.07.44-.18.64-.31.04-.03.08-.05.11-.09.07-.07.07-.15,0-.22-.07-.06-.15-.11-.23-.17-.08-.06-.09-.13-.03-.22.11-.19.28-.29.48-.34.33-.08.61-.25.86-.46.16-.13.32-.24.52-.3.11-.03.23-.07.3-.18.13-.17.29-.31.45-.45.08-.07.08-.14-.01-.2-.26-.18-.51-.37-.81-.5-.13-.06-.25-.11-.4-.11-.29,0-.55-.11-.81-.22-.16-.07-.32-.14-.5-.17-.08-.01-.17-.02-.22-.1-.09-.13-.22-.21-.35-.29-.08-.05-.12-.11-.06-.2.09-.15.08-.32.1-.48,0-.08-.04-.13-.11-.16-.04-.02-.09-.03-.14-.03-.63-.08-1.23-.31-1.86-.43-.13-.02-.14-.05-.15-.2,0-.2,0-.4-.01-.6-.01-.18-.05-.21-.22-.19-.05,0-.1,0-.14.02-.44.14-.9.22-1.28.5-.1.08-.21.15-.35.12-.06-.08.05-.19-.07-.27-.15.08-.32.11-.5.09-.13-.02-.26.02-.38.07-.08.03-.15.08-.23.07-.06,0-.09-.04-.09-.09,0-.06.02-.12.04-.17.08-.19.04-.37-.01-.55-.02-.08-.08-.11-.16-.08-.14.04-.26.11-.37.2-.17.13-.34.25-.52.37-.08.05-.16.1-.26.09-.29-.03-.56.06-.84.1-.22.03-.44.1-.63.22-.14.08-.3.15-.44.23-.54.3-1.09.57-1.56.98-.32.28-.69.45-1.1.54-.1.02-.21.06-.31.07-.3.03-.52-.27-.4-.53.17-.36.37-.71.69-.97.2-.16.42-.26.65-.35.51-.21,1.05-.36,1.54-.64.06-.03.13-.05.2-.06.33-.03.64-.15.96-.25.28-.1.49-.27.62-.55.03-.08.08-.15.11-.22.07-.16.19-.27.34-.35.16-.08.32-.14.48-.22.2-.09.4-.2.55-.37-.01-.02-.02-.03-.03-.04-.06-.07-.15-.06-.23-.09-.11-.05-.15-.17-.07-.25.05-.06.13-.1.19-.15.26-.18.5-.39.69-.65-.03-.02-.05-.04-.07-.05-.11-.08-.11-.08-.03-.14.17-.15.34-.29.51-.44.23-.2.46-.41.64-.66.08-.1.14-.22.2-.33.04-.08.02-.17-.06-.22-.44-.28-.88-.56-1.32-.83-.12-.08-.25-.12-.4-.11-.05,0-.08-.06-.05-.1.01-.02.02-.04.04-.06.25-.26.43-.56.61-.87.09-.15.08-.21-.04-.34-.04-.04-.09-.08-.13-.12-.11-.1-.23-.2-.34-.31-.09-.08-.08-.14.01-.19.2-.11.39-.22.57-.36.23-.18.38-.25-.03-.43-.01,0-.02-.01-.03-.02-.05-.03-.05-.1-.02-.15.09-.12.22-.18.35-.23.24-.1.45-.26.65-.43.17-.15.17-.22.04-.39-.1-.12-.2-.23-.34-.31-.11-.07-.23-.13-.32-.22-.23-.22-.49-.36-.79-.45-.22-.07-.21-.13-.17-.31.02-.09.07-.17.13-.25.1-.14.22-.25.34-.36.17-.15.35-.28.48-.47-.1-.14-.24-.2-.37-.28-.33-.22-.35-.36-.11-.66.2-.24.36-.49.49-.77.06-.13.13-.26.21-.37.16-.22.08-.28-.08-.41-.2-.15-.42-.28-.65-.35-.32-.1-.44-.38-.62-.59-.02-.03-.01-.07.02-.09.06-.04.12-.07.17-.12.11-.1.17-.22.2-.37.02-.12-.07-.19-.13-.28-.03-.04-.06-.07-.08-.12-.11-.22-.17-.44.03-.65.14-.15.18-.33.11-.53-.07-.17-.01-.32.07-.48-.24-.03-.42-.13-.6-.25-.16-.11-.35-.18-.53-.28-.08-.04-.22.01-.25-.1-.02-.08,0-.19.02-.28.02-.12.05-.23.09-.34.06-.17.08-.35.06-.52-.02-.14-.05-.28-.07-.42-.01-.1-.07-.15-.16-.15-.17,0-.28-.11-.38-.22-.07-.08-.13-.17-.16-.27-.03-.12-.1-.22-.19-.3-.22-.2-.34-.44-.34-.74,0-.17-.09-.21-.27-.17-.02,0-.05,0-.07.02-.26.2-.55.14-.84.09-.01,0-.02,0-.04,0-.27,0-.52.06-.67.31-.02.04-.05.08-.11.07-.18-.23-.17-.24-.33-.29-.11-.03-.19-.13-.28-.14-.11,0-.21.07-.32.11-.08.03-.16.05-.24.08-.26.09-.5.21-.67.44-.06.08-.11.08-.18.03-.09-.06-.17-.13-.2-.24-.04-.11-.12-.18-.22-.22-.21-.08-.39-.22-.55-.38-.09-.09-.16-.08-.25,0-.09.09-.18.18-.31.23-.25.09-.47.24-.64.44-.22.25-.49.44-.73.67-.12.12-.17.12-.31.03-.12-.08-.24-.15-.35-.24-.12-.1-.25-.18-.4-.22-.15-.04-.29-.11-.41-.2-.05-.03-.1-.06-.15-.09-.11-.05-.17-.04-.23.07-.15.28-.38.52-.49.82-.02.04-.04.09-.07.12-.22.24-.38.51-.48.82-.03.08-.09.1-.17.09-.24-.04-.49-.1-.72-.18-.08-.03-.14,0-.17.08-.15.39-.43.7-.57,1.12-.27-.15-.53-.25-.67-.52-.05-.09-.13-.17-.23-.22-.18-.11-.37-.21-.55-.31-.07-.04-.13-.03-.2.02-.27.23-.53.46-.71.78-.13.23-.26.45-.15.73,0,.02,0,.05-.01.07-.1.04-.17-.05-.26-.07-.06-.01-.12,0-.15.07-.09.18-.13.38-.16.58-.01.07-.01.14-.03.21-.02.07-.09.11-.17.08-.08-.03-.15-.07-.22-.11-.16-.08-.34-.09-.52-.07-.08.01-.14.05-.12.14.02.16,0,.31-.05.45-.07.2-.09.41-.13.62-.03.17-.06.35-.08.52-.02.13-.09.24-.16.35-.04.05-.09.07-.16.05-.26-.09-.52-.16-.72-.37-.09-.09-.19-.17-.32-.23-.33-.14-.65-.28-.98-.42-.11-.05-.22-.09-.34-.09-.39.01-.38-.02-.42.35,0,.04,0,.07-.02.1-.09.3-.08.61-.06.91,0,.13.05.26.01.38-.16.07-.32-.04-.48.03.01.35.23.63.21.98-.08-.02-.13-.02-.19-.04-.06-.02-.11-.04-.16-.07-.36-.22-.37-.11-.4.25-.01.19-.04.38.04.56.16.34.1.72.22,1.07.01.03-.03.07-.07.06-.08-.02-.15-.06-.23-.08-.11-.03-.22-.07-.35-.06-.09.01-.15.07-.13.17.05.28.11.56.26.8.09.14.13.3.17.46.15.75.19,1.5.2,2.26,0,.15-.02.31-.04.46-.01.08-.05.16-.08.23-.02.05-.07.08-.11.05-.27-.18-.48-.42-.55-.75-.04-.21-.08-.42-.12-.63-.04-.23-.06-.47-.03-.7.01-.09.01-.19.01-.28,0-.07-.04-.1-.11-.1-.07,0-.1-.04-.13-.1-.04-.1-.07-.2-.12-.29-.07-.14-.08-.27-.03-.41.03-.1.06-.2.09-.31.02-.07-.02-.1-.11-.09-.19.02-.2.02-.25-.13-.09-.27-.14-.55-.19-.83-.04-.25-.12-.48-.25-.69-.04-.06-.09-.09-.18-.06-.31.09-.54.28-.74.53-.16.19-.18.21-.39.02-.09-.08-.15-.19-.2-.29-.07-.15-.13-.3-.2-.45-.05-.1-.08-.22-.18-.29-.19.05-.31.22-.48.26-.21-.11-.22-.34-.31-.5-.1,0-.09.11-.18.11-.09-.17-.13-.37-.16-.57-.06-.35-.29-.58-.57-.79-.12.13-.25.23-.39.32-.18.12-.35.24-.39.48,0,.02-.02.04-.04.06-.05.07-.12.08-.17,0-.15-.2-.32-.38-.55-.49-.2-.11-.38-.23-.53-.41-.11-.13-.24-.23-.4-.29-.27-.11-.37-.08-.55.15-.06.08-.1.16-.13.25-.05.14-.07.13-.21.1-.14-.04-.27-.08-.39-.17-.25-.2-.54-.28-.86-.28-.29,0-.56-.1-.82-.2-.15-.06-.3-.14-.45-.21-.15-.08-.3-.13-.47-.13-.19,0-.37-.02-.55-.11-.1-.05-.23-.08-.35-.04-.23.07-.46.11-.7.08-.06,0-.11.07-.08.12.05.09.09.19.11.3.01.12.04.23.09.34.2.41.24.86.31,1.3.02.11-.02.14-.14.15-.01,0-.02,0-.04,0-.17,0-.17,0-.1.13.06.1.12.2.1.33-.05.26-.01.52,0,.78,0,.08.04.16-.01.25-.04,0-.09.02-.14.01-.08-.01-.16-.04-.24-.06-.2-.05-.37.04-.53.15-.13.1-.05.24-.04.36,0,.01,0,.02,0,.04-.03.26.09.45.29.61.1.08.2.17.26.29.06.1.05.14-.04.21-.11.08-.26.11-.34.23.05.11.13.18.2.26.12.13.24.26.35.4.06.08.03.16-.07.19-.07.02-.14.03-.21,0-.04-.02-.09-.03-.13-.05-.27-.11-.53-.1-.78.05-.02.01-.04.02-.07.03-.17.08-.18.12-.08.29.19.33.38.65.65.92.16.16.3.34.4.54.17.34.08.5-.31.51-.12,0-.24-.02-.35-.03-.03,0-.07-.01-.1-.02-.05,0-.09.05-.07.1.08.17.17.34.26.5.04.07.11.14.04.22-.06.06-.13.03-.2.01-.08-.02-.16-.04-.23-.08-.37-.19-.73-.38-1.02-.69-.04-.05-.11-.03-.13.04-.01.05-.03.09-.02.14.08.38.07.78.25,1.14.08.15.11.31.17.47.06.16.07.32.08.49,0,.08-.02.13-.09.18-.08.05-.18.07-.21.18.04.13.2.17.23.31.04.18.17.31.31.42.07.06.15.12.18.22.02.07,0,.15-.06.18-.08.03-.15.06-.23.08-.12.04-.16.11-.08.2.17.23.25.51.38.76.05.11.08.22.09.34.02.22-.03.3-.26.34-.13.03-.26.05-.38.08-.18.04-.19.07-.13.24.06.16.05.18-.11.21-.16.03-.33.04-.49.09-.32.09-.63.19-.95.29-.1.03-.21.05-.26.14,0,.09.05.15.09.2.13.15.27.29.41.45.19.22.42.38.69.48.13.05.23.13.32.21.06.05.05.1,0,.14-.12.07-.25.13-.37.21-.1.07-.09.17.02.22.06.03.13.05.2.06.2.04.38.13.56.21.09.04.17.09.23.16.03.04.04.09-.01.12s-.11.05-.16.07c-.21.07-.41.17-.61.31.02.05.04.09.06.13.15.26.4.38.66.45.37.1.72.29,1.11.3.01.09-.03.13-.09.16-.15.09-.31.17-.47.25-.15.07-.29.17-.39.3-.03.05-.1.08-.08.15.02.07.09.06.15.07.13,0,.26.01.39.02.1,0,.25-.05.3.05.06.13-.12.18-.17.27-.02.03-.04.05-.01.1.24.11.5.11.75.15.06,0,.13.02.13.09,0,.03-.07.06-.11.08-.09.02-.18.04-.28.05-.1.02-.21.04-.31.07-.09.02-.11.09-.05.16.14.19.31.35.5.5.03.02.06.05.03.09-.02.03-.05.05-.08.05-.28.03-.56.08-.83.16-.71.2-1.41.38-2.15.46-.2.02-.39.08-.57.19-.12.07-.12.17-.01.25.2.15.4.3.6.44.29.21.58.41.87.61.07.05.07.1.03.18-.09.15-.08.15.01.27.1.13.26.19.37.3,0,.08-.05.12-.09.16-.07.08-.14.16-.22.23-.45.35-.37.31.08.58.12.07.26.12.4.13.31.02.56.16.76.39.1.11.11.15.01.27-.16.22-.32.44-.52.63-.07.06-.13.14-.18.22-.04.05-.03.11.04.14.25.13.51.25.8.28.14.01.28.05.42.07.08.01.16.04.23.09.06.05.09.12.05.19-.05.08-.11.15-.17.23-.03.05-.1.08-.08.15.02.08.1.05.15.05.18-.01.32.08.44.19.09.08.08.2-.01.27-.07.06-.17.09-.23.16-.26.32-.5.66-.75.99-.06.08-.03.16.07.19.23.07.47.06.7.04.21-.02.42-.05.63-.07.09,0,.14.05.12.13-.02.09-.06.18-.08.27-.04.12-.12.23-.1.37.07,0,.13,0,.18,0,.15.01.31.02.46.04.1.01.14.08.11.18-.02.06-.03.11-.06.17-.07.14-.13.28-.21.41-.22.4-.29.85-.33,1.29,0,.07,0,.14.01.21.01.1.08.15.17.11.18-.07.35-.14.51-.25.06-.04.12-.08.19-.1.19-.07.35.06.33.27,0,.04-.05.08,0,.12.08,0,.16-.02.24-.02.07,0,.14,0,.21,0,.1.01.15.06.15.16,0,.13-.01.25-.02.38.35.02.52.01.77-.11.23-.11.48-.12.73-.13.09,0,.13.06.09.14-.12.23-.24.46-.37.68-.12.19-.13.18.07.34.06.05.14.09.22.12.32.12.32.13.27.46,0,.05-.01.09-.03.14-.15.4-.19.83-.3,1.24-.03.14-.05.28-.06.42-.01.18,0,.36.05.53.06.18.13.23.31.22.27,0,.51-.1.74-.22.33-.17.67-.3,1.01-.44.22-.09.3-.04.31.21,0,.06,0,.12,0,.18.01.18.04.35.11.52.04.08.09.1.17.07.31-.14.62-.29.84-.57.08-.1.18-.19.27-.28.04-.04.09-.07.14-.1.05-.03.14,0,.15.05.02.08.03.16.03.24,0,.17.05.33.14.47.1.17.22.33.34.51.32-.18.58-.39.73-.74.13-.3.29-.59.53-.83.06-.06.12-.11.19-.15.05-.03.12-.02.15.05.04.09.07.18.11.26.03.08.1.09.18.04.08-.06.14-.12.18-.21.03-.09.07-.18.09-.27.06-.29.25-.47.49-.61.12-.07.19-.05.27.07.1.15.16.32.2.49.06.23.17.44.26.66.02.05.04.12.11.11.09-.03.12-.11.17-.18.27-.41.5-.83.51-1.34,0-.17.05-.33.11-.48.06-.17.11-.34.17-.5.03-.08.04-.19.13-.19.11,0,.1.11.12.19,0,.01,0,.02,0,.03.01.03.01.08.06.07.03,0,.08-.03.08-.05.1-.28.34-.45.54-.64.25-.24.5-.47.74-.71.37-.36.75-.72,1.12-1.09.03-.03.08-.08.12-.04.03.02.03.09.02.13-.02.1-.04.21-.07.31-.11.41-.22.82-.34,1.23-.58,1.92-1.16,3.84-1.83,5.74-.32.9-.61,1.81-.86,2.74-.09.33-.18.66-.23,1-.17,1.31.13,2.51.8,3.63.28.47.66.86,1.02,1.26.22.25.47.47.61.77.04.09.11.15.21.18.35.1.64.31.93.51.57.4,1.18.74,1.8,1.06,1.28.64,2.56,1.28,3.82,1.94,1.65.86,3.29,1.76,4.95,2.62.58.3,1.04.71,1.45,1.22,1.73,2.16,3.13,4.52,4.37,6.98.57,1.12.99,2.3,1.16,3.55.04.32.07.65.1.97.19.29.36.58.49.88,0-.17.03-.35.03-.52,0-.82-.11-1.62-.35-2.41-.31-1.01-.72-1.97-1.15-2.93ZM729.62,80.71c-.11.14-.23.27-.36.39-.08.08-.15.18-.27.21-.12-.09-.06-.24-.09-.36-.01-.06-.01-.12-.03-.17-.13-.47-.06-.94,0-1.41.03-.23.11-.44.25-.62.14-.2.29-.4.46-.58.31-.34.64-.66,1.01-.93.3-.22.63-.38.96-.53.08,0,.1.02.11.05.03.07.01.14,0,.21-.06.29-.17.57-.29.83-.46,1.04-1.07,2-1.75,2.9ZM729.45,96.71c-.18-.05-.33-.13-.45-.27-.61-.71-1.09-1.48-1.28-2.41-.08-.38-.06-.75-.03-1.13.04-.7.21-1.38.43-2.04.44-1.33.89-2.66,1.33-4,.65-1.95,1.23-3.92,1.82-5.89.14-.46.29-.92.42-1.39.1-.33.25-.64.39-.95.22-.47.44-.94.66-1.41.12-.25.23-.49.4-.71.03-.04.06-.07.1-.11.2.06.33.2.4.38.3.68.59,1.37.6,2.13,0,.77-.12,1.5-.53,2.17-.28.46-.57.92-.86,1.39-.06.09-.13.17-.19.25-.04.05-.08.09-.07.16,0,.03.02.07.04.09,0,0,.05,0,.06,0,.07-.04.13-.1.2-.14.04-.02.1.02.1.07,0,.05,0,.1-.02.14-.1.33-.15.67-.31.97-.04.07-.07.15-.11.22-.07.15-.08.29.05.42.09.09.11.2.04.32-.07.11-.01.24.02.34.05.15.07.29.06.45-.03.41.1.79.32,1.14.13-.01.18-.12.21-.21.07-.2.19-.34.36-.47.11-.09.19-.21.28-.31.01-.01.04-.02.06-.02.02,0,.04.03.04.05,0,.08,0,.16-.02.25-.02.14-.03.28,0,.42.01.07,0,.17.06.19.1.04.13-.07.18-.13.02-.02.03-.03.05-.05.06-.04.15-.01.18.05.03.07.03.14.02.21-.07.33.03.66.08.98.02.17.14.32.22.48.03.07.11.07.18.02.09-.08.15-.18.21-.28.08-.13.16-.26.25-.39.03-.04.09-.03.12.02.02.04.05.08.06.13.06.29.21.55.37.8.06.09.1.18.16.28.02.04.05.09.11.08.06,0,.08-.05.08-.1.02-.14.09-.24.18-.34.03-.04.07-.06.12-.04.06.02.11.05.1.12-.02.1-.04.21-.07.31-.23.67-.49,1.33-.8,1.97-.07.15-.15.3-.24.44-.5.8-1.03,1.59-1.63,2.32-.65.8-1.41,1.5-2.18,2.17-.37.32-.8.55-1.23.76-.36.17-.72.21-1.1.09Z"/>
  <path class="st12" d="M726.03,109.85c12.76,0,24.28,5.17,32.65,13.54,8.34,8.34,13.51,19.89,13.51,32.62s-5.17,24.28-13.51,32.62c-8.37,8.37-19.89,13.54-32.65,13.54s-24.28-5.17-32.62-13.54c-8.34-8.34-13.51-19.89-13.51-32.62s5.16-24.28,13.51-32.62c8.34-8.37,19.89-13.54,32.62-13.54h0ZM755.72,126.36c-7.6-7.6-18.08-12.32-29.69-12.32s-22.06,4.72-29.66,12.32c-7.6,7.57-12.29,18.08-12.29,29.66s4.69,22.09,12.29,29.69c7.6,7.57,18.08,12.29,29.66,12.29s22.09-4.72,29.69-12.29c7.6-7.6,12.29-18.11,12.29-29.69s-4.69-22.09-12.29-29.66h0Z"/>
  <path class="st3" d="M725.85,119.95c19.58,0,35.45,15.86,35.45,35.42s-15.86,35.42-35.45,35.42-35.42-15.86-35.42-35.42,15.86-35.42,35.42-35.42h0ZM751.2,140.47c0-1.14.94-2.05,2.08-2.05s2.05.91,2.05,2.05v29.8c0,1.14-.91,2.05-2.05,2.05s-2.08-.91-2.08-2.05v-29.8ZM737.59,127.41c0-1.14.94-2.08,2.08-2.08s2.08.94,2.08,2.08v55.93c0,1.14-.94,2.05-2.08,2.05s-2.08-.91-2.08-2.05v-55.93ZM696.4,140.47c0-1.14.91-2.05,2.05-2.05s2.08.91,2.08,2.05v29.8c0,1.14-.94,2.05-2.08,2.05s-2.05-.91-2.05-2.05v-29.8ZM709.99,127.41c0-1.14.94-2.08,2.08-2.08s2.05.94,2.05,2.08v55.93c0,1.14-.91,2.05-2.05,2.05s-2.08-.91-2.08-2.05v-55.93ZM718.01,176.97,727.62,124.94c0-1.19-.97-2.16-2.16-2.16s-2.13.97-2.13,2.16v34.72h4.29v-34.72ZM729.99,177.81h-2.37v-18.15h-4.29v18.15h-2.37c-.85,0-1.77.43-2.47,1.04-.7.64-1.19,1.49-1.19,2.34v3.62c0,.52.24,1.07.61,1.46.4.4.91.67,1.46.67h12.21c.55,0,1.07-.27,1.43-.67.37-.4.64-.94.64-1.46v-3.62c0-.85-.52-1.71-1.19-2.34-.7-.61-1.64-1.04-2.47-1.04Z"/>
  <path class="st12" d="M725.85,117.87c10.36,0,19.73,4.22,26.52,10.98,6.79,6.79,10.98,16.16,10.98,26.52s-4.18,19.73-10.98,26.52c-6.79,6.79-16.16,10.98-26.52,10.98s-19.73-4.19-26.49-10.98c-6.79-6.79-10.98-16.16-10.98-26.52s4.19-19.73,10.98-26.52c6.76-6.76,16.16-10.98,26.49-10.98h0ZM749.44,131.78c-6.03-6.03-14.37-9.78-23.59-9.78s-17.53,3.75-23.59,9.78c-6.03,6.03-9.75,14.37-9.75,23.59s3.72,17.56,9.75,23.59c6.06,6.03,14.4,9.78,23.59,9.78s17.56-3.75,23.59-9.78c6.03-6.03,9.78-14.37,9.78-23.59s-3.75-17.56-9.78-23.59h0Z"/>
</svg>